<svg width="164" height="164" viewBox="0 0 164 164" fill="none" xmlns="http://www.w3.org/2000/svg">
<circle cx="82" cy="82" r="82" fill="#F9F9FA"/>
<path d="M54.0291 102.413L81.6858 86.132L110.358 102.901L82.7017 119.182L54.0291 102.413Z" fill="#D9DDF6"/>
<path d="M82.7024 119.182L110.359 102.901L110.33 104.719L82.6729 121L82.7024 119.182Z" fill="#AABAFD"/>
<path d="M82.7021 119.182L82.6725 121L54 104.231L54.0296 102.413L82.7021 119.182Z" fill="#B7C5FD"/>
<path d="M81.6983 68.5139L104.083 56.0347L104.06 103.594L82.5622 116.25L81.6983 68.5139Z" fill="#1B2A4F"/>
<path d="M94.793 104.89L94.7959 105.925L101.894 101.774L101.891 100.739L94.793 104.89Z" fill="#384E85"/>
<path d="M94.7725 97.7356L94.7754 98.7705L101.873 94.6192L101.871 93.5844L94.7725 97.7356Z" fill="#384E85"/>
<path d="M94.7774 99.5243L94.7803 100.559L101.878 96.4079L101.875 95.373L94.7774 99.5243Z" fill="#384E85"/>
<path d="M94.7823 101.313L94.7851 102.348L101.883 98.1966L101.88 97.1617L94.7823 101.313Z" fill="#384E85"/>
<path d="M94.7881 103.102L94.791 104.136L101.889 99.9852L101.886 98.9503L94.7881 103.102Z" fill="#384E85"/>
<path d="M94.793 73.3804L94.7959 74.4153L101.894 70.264L101.891 69.2291L94.793 73.3804Z" fill="#384E85"/>
<path d="M94.7725 66.2252L94.7754 67.2601L101.873 63.1088L101.871 62.074L94.7725 66.2252Z" fill="#384E85"/>
<path d="M94.7774 68.0142L94.7803 69.0491L101.878 64.8978L101.875 63.8629L94.7774 68.0142Z" fill="#384E85"/>
<path d="M94.7823 69.8028L94.7852 70.8376L101.883 66.6864L101.88 65.6515L94.7823 69.8028Z" fill="#384E85"/>
<path d="M94.7881 71.5916L94.791 72.6264L101.889 68.4752L101.886 67.4403L94.7881 71.5916Z" fill="#384E85"/>
<path d="M82.5857 68.5137L82.5627 116.249L60.2754 103.215L60.2984 55.6552L82.5857 68.5137Z" fill="#2E4277"/>
<path d="M80.7794 70.2551L81.6999 69.7133L81.6803 74.7729L80.7598 75.3147L80.7794 70.2551Z" fill="#4466FB"/>
<path d="M61.183 58.7947L62.1034 58.2528L81.6996 69.7136L80.7791 70.2555L61.183 58.7947Z" fill="#B7C5FD"/>
<path d="M80.7789 70.2555L80.7593 75.3151L61.1631 63.8543L61.1827 58.7947L80.7789 70.2555Z" fill="#B7C5FD"/>
<path d="M80.7789 70.2555L80.7593 75.3151L61.1631 63.8543L61.1827 58.7947L80.7789 70.2555Z" fill="#4466FB"/>
<path d="M63.8215 61.7099L63.8187 62.4012L62.4463 61.5985L62.4491 60.9072L63.8215 61.7099Z" fill="#384E85"/>
<path d="M65.8143 62.8746L65.8116 63.5659L64.4424 62.7652L64.4452 62.0739L65.8143 62.8746Z" fill="#384E85"/>
<path d="M78.9797 70.5756L78.9769 71.2669L77.6045 70.4643L77.6073 69.7729L78.9797 70.5756Z" fill="#384E85"/>
<path d="M78.8965 72.8539C78.9976 72.7944 78.9974 72.6027 78.8959 72.4257C78.7944 72.2488 78.6301 72.1537 78.5289 72.2132C78.4277 72.2728 78.428 72.4645 78.5295 72.6414C78.631 72.8183 78.7953 72.9135 78.8965 72.8539Z" fill="white"/>
<path d="M77.831 71.7153C77.976 71.8001 78.0902 72.0033 78.0897 72.1691C78.0892 72.3349 77.9744 72.4042 77.8294 72.3194C77.6869 72.2361 77.5728 72.0329 77.5733 71.8671C77.5737 71.7012 77.6886 71.632 77.831 71.7153Z" fill="white"/>
<path d="M77.1328 71.8231C77.234 71.7635 77.2337 71.5718 77.1322 71.3949C77.0307 71.2179 76.8664 71.1228 76.7652 71.1823C76.6641 71.2419 76.6643 71.4336 76.7658 71.6105C76.8674 71.7875 77.0316 71.8826 77.1328 71.8231Z" fill="white"/>
<path d="M76.25 71.3069C76.3512 71.2474 76.3509 71.0557 76.2494 70.8787C76.1479 70.7018 75.9836 70.6067 75.8824 70.6662C75.7813 70.7258 75.7815 70.9175 75.883 71.0944C75.9845 71.2713 76.1488 71.3665 76.25 71.3069Z" fill="white"/>
<path d="M61.8513 59.8322L61.7332 59.7634L61.7186 63.4857L61.7178 63.5311L80.0923 74.2771L80.2103 74.3459L80.225 70.6236L80.2257 70.5783L61.8513 59.8322ZM80.0529 74.0708L61.8768 63.4404L61.8907 60.0386L80.0668 70.669L80.0529 74.0708Z" fill="#4466FB"/>
<path d="M80.7794 77.8621L81.6999 77.3202L81.6803 82.3798L80.7598 82.9217L80.7794 77.8621Z" fill="#4466FB"/>
<path d="M61.183 66.4015L62.1034 65.8596L81.6996 77.3204L80.7791 77.8623L61.183 66.4015Z" fill="#B7C5FD"/>
<path d="M80.7789 77.8622L80.7593 82.9218L61.1631 71.461L61.1827 66.4014L80.7789 77.8622Z" fill="#B7C5FD"/>
<path d="M80.7789 77.8622L80.7593 82.9218L61.1631 71.461L61.1827 66.4014L80.7789 77.8622Z" fill="#4466FB"/>
<path d="M63.8215 69.3166L63.8187 70.0079L62.4463 69.2052L62.4491 68.5139L63.8215 69.3166Z" fill="#384E85"/>
<path d="M65.8143 70.4814L65.8116 71.1727L64.4424 70.372L64.4452 69.6807L65.8143 70.4814Z" fill="#384E85"/>
<path d="M78.9797 78.1824L78.9769 78.8737L77.6045 78.0711L77.6073 77.3798L78.9797 78.1824Z" fill="#384E85"/>
<path d="M78.8965 80.4606C78.9976 80.4011 78.9974 80.2094 78.8959 80.0324C78.7944 79.8555 78.6301 79.7603 78.5289 79.8199C78.4277 79.8795 78.428 80.0712 78.5295 80.2481C78.631 80.425 78.7953 80.5202 78.8965 80.4606Z" fill="white"/>
<path d="M77.831 79.3221C77.976 79.4069 78.0902 79.6101 78.0897 79.7759C78.0892 79.9417 77.9744 80.011 77.8294 79.9262C77.6869 79.8429 77.5728 79.6397 77.5733 79.4739C77.5737 79.308 77.6886 79.2388 77.831 79.3221Z" fill="white"/>
<path d="M77.1318 79.4297C77.233 79.3702 77.2327 79.1785 77.1312 79.0015C77.0297 78.8246 76.8654 78.7295 76.7643 78.789C76.6631 78.8486 76.6634 79.0403 76.7649 79.2172C76.8664 79.3941 77.0307 79.4893 77.1318 79.4297Z" fill="white"/>
<path d="M76.25 78.9136C76.3512 78.8541 76.3509 78.6624 76.2494 78.4854C76.1479 78.3085 75.9836 78.2133 75.8824 78.2729C75.7813 78.3325 75.7815 78.5242 75.883 78.7011C75.9845 78.878 76.1488 78.9732 76.25 78.9136Z" fill="white"/>
<path d="M61.8513 67.439L61.7332 67.3702L61.7186 71.0925L61.7178 71.1379L80.0923 81.884L80.2103 81.9527L80.225 78.2305L80.2257 78.1851L61.8513 67.439ZM80.0529 81.6776L61.8768 71.0472L61.8907 67.6454L80.0668 78.2758L80.0529 81.6776Z" fill="#4466FB"/>
<path d="M80.7794 85.4691L81.6999 84.9272L81.6803 89.9869L80.7598 90.5288L80.7794 85.4691Z" fill="#4466FB"/>
<path d="M61.183 74.0083L62.1034 73.4664L81.6996 84.9272L80.7791 85.4691L61.183 74.0083Z" fill="#B7C5FD"/>
<path d="M80.7789 85.4693L80.7593 90.529L61.1631 79.0682L61.1827 74.0085L80.7789 85.4693Z" fill="#B7C5FD"/>
<path d="M80.7789 85.4693L80.7593 90.529L61.1631 79.0682L61.1827 74.0085L80.7789 85.4693Z" fill="#4466FB"/>
<path d="M63.8215 76.9237L63.8187 77.615L62.4463 76.8124L62.4491 76.1211L63.8215 76.9237Z" fill="#384E85"/>
<path d="M65.8143 78.0885L65.8116 78.7798L64.4424 77.979L64.4452 77.2877L65.8143 78.0885Z" fill="#384E85"/>
<path d="M78.9797 85.789L78.9769 86.4803L77.6045 85.6776L77.6073 84.9863L78.9797 85.789Z" fill="#384E85"/>
<path d="M78.8965 88.0676C78.9977 88.008 78.9974 87.8163 78.8959 87.6394C78.7944 87.4624 78.6301 87.3673 78.5289 87.4268C78.4277 87.4864 78.428 87.6781 78.5295 87.855C78.631 88.032 78.7953 88.1271 78.8965 88.0676Z" fill="white"/>
<path d="M77.831 86.9289C77.976 87.0137 78.0902 87.2169 78.0897 87.3827C78.0892 87.5485 77.9744 87.6178 77.8294 87.533C77.6869 87.4497 77.5728 87.2465 77.5733 87.0807C77.5737 86.9148 77.6886 86.8456 77.831 86.9289Z" fill="white"/>
<path d="M77.1318 87.0364C77.233 86.9769 77.2327 86.7852 77.1312 86.6082C77.0297 86.4313 76.8654 86.3362 76.7643 86.3957C76.6631 86.4553 76.6634 86.647 76.7649 86.8239C76.8664 87.0008 77.0307 87.096 77.1318 87.0364Z" fill="white"/>
<path d="M76.25 86.5203C76.3512 86.4608 76.3509 86.2691 76.2494 86.0921C76.1479 85.9152 75.9836 85.82 75.8824 85.8796C75.7813 85.9391 75.7815 86.1309 75.883 86.3078C75.9845 86.4847 76.1488 86.5799 76.25 86.5203Z" fill="white"/>
<path d="M61.8513 75.0462L61.7332 74.9774L61.7186 78.6997L61.7178 78.745L80.0923 89.4911L80.2103 89.5599L80.225 85.8376L80.2257 85.7923L61.8513 75.0462ZM80.0529 89.2848L61.8768 78.6544L61.8907 75.2526L80.0668 85.883L80.0529 89.2848Z" fill="#4466FB"/>
<path d="M80.7794 93.0761L81.6999 92.5342L81.6803 97.5938L80.7598 98.1357L80.7794 93.0761Z" fill="#4466FB"/>
<path d="M61.183 81.6154L62.1034 81.0735L81.6996 92.5343L80.7791 93.0762L61.183 81.6154Z" fill="#B7C5FD"/>
<path d="M80.7789 93.0758L80.7593 98.1354L61.1631 86.6746L61.1827 81.615L80.7789 93.0758Z" fill="#B7C5FD"/>
<path d="M80.7789 93.0758L80.7593 98.1354L61.1631 86.6746L61.1827 81.615L80.7789 93.0758Z" fill="#4466FB"/>
<path d="M63.8215 84.5303L63.8187 85.2216L62.4463 84.419L62.4491 83.7277L63.8215 84.5303Z" fill="#384E85"/>
<path d="M65.8143 85.6954L65.8116 86.3867L64.4424 85.586L64.4452 84.8947L65.8143 85.6954Z" fill="#384E85"/>
<path d="M78.9797 93.3961L78.9769 94.0874L77.6045 93.2848L77.6073 92.5935L78.9797 93.3961Z" fill="#384E85"/>
<path d="M78.8965 95.6746C78.9976 95.6151 78.9974 95.4234 78.8959 95.2464C78.7944 95.0695 78.6301 94.9743 78.5289 95.0339C78.4277 95.0934 78.428 95.2852 78.5295 95.4621C78.631 95.639 78.7953 95.7342 78.8965 95.6746Z" fill="white"/>
<path d="M77.831 94.5361C77.976 94.6209 78.0902 94.8241 78.0897 94.9899C78.0892 95.1557 77.9744 95.225 77.8294 95.1402C77.6869 95.0569 77.5728 94.8537 77.5733 94.6879C77.5737 94.522 77.6886 94.4528 77.831 94.5361Z" fill="white"/>
<path d="M77.1318 94.6437C77.233 94.5842 77.2327 94.3925 77.1312 94.2155C77.0297 94.0386 76.8654 93.9435 76.7643 94.003C76.6631 94.0626 76.6634 94.2543 76.7649 94.4312C76.8664 94.6081 77.0307 94.7033 77.1318 94.6437Z" fill="white"/>
<path d="M76.25 94.1276C76.3512 94.0681 76.3509 93.8764 76.2494 93.6994C76.1479 93.5225 75.9836 93.4273 75.8824 93.4869C75.7813 93.5464 75.7815 93.7382 75.883 93.9151C75.9845 94.092 76.1488 94.1872 76.25 94.1276Z" fill="white"/>
<path d="M61.8513 82.6526L61.7332 82.5839L61.7186 86.3062L61.7178 86.3515L80.0923 97.0976L80.2103 97.1664L80.225 93.4441L80.2257 93.3987L61.8513 82.6526ZM80.0529 96.8912L61.8768 86.2608L61.8907 82.859L80.0668 93.4894L80.0529 96.8912Z" fill="#4466FB"/>
<path d="M80.7794 100.683L81.6999 100.141L81.6803 105.2L80.7598 105.742L80.7794 100.683Z" fill="#4466FB"/>
<path d="M61.183 89.2219L62.1035 88.6801L81.6997 100.141L80.7792 100.683L61.183 89.2219Z" fill="#B7C5FD"/>
<path d="M80.7789 100.683L80.7593 105.743L61.1631 94.2818L61.1827 89.2222L80.7789 100.683Z" fill="#B7C5FD"/>
<path d="M80.7789 100.683L80.7593 105.743L61.1631 94.2818L61.1827 89.2222L80.7789 100.683Z" fill="#386DF4"/>
<path d="M63.8215 92.1375L63.8187 92.8288L62.4463 92.0261L62.4491 91.3348L63.8215 92.1375Z" fill="#384E85"/>
<path d="M65.8143 93.3022L65.8116 93.9935L64.4424 93.1928L64.4452 92.5015L65.8143 93.3022Z" fill="#384E85"/>
<path d="M78.9797 101.003L78.9769 101.694L77.6045 100.892L77.6073 100.2L78.9797 101.003Z" fill="#384E85"/>
<path d="M78.8965 103.281C78.9976 103.222 78.9974 103.03 78.8959 102.853C78.7944 102.676 78.6301 102.581 78.5289 102.641C78.4277 102.7 78.428 102.892 78.5295 103.069C78.631 103.246 78.7953 103.341 78.8965 103.281Z" fill="white"/>
<path d="M77.831 102.143C77.976 102.228 78.0902 102.431 78.0897 102.597C78.0892 102.763 77.9744 102.832 77.8294 102.747C77.6869 102.664 77.5728 102.46 77.5733 102.295C77.5737 102.129 77.6886 102.06 77.831 102.143Z" fill="white"/>
<path d="M77.1318 102.25C77.233 102.191 77.2327 101.999 77.1312 101.822C77.0297 101.645 76.8654 101.55 76.7643 101.61C76.6631 101.669 76.6634 101.861 76.7649 102.038C76.8664 102.215 77.0307 102.31 77.1318 102.25Z" fill="white"/>
<path d="M76.25 101.734C76.3512 101.675 76.3509 101.483 76.2494 101.306C76.1479 101.129 75.9836 101.034 75.8824 101.094C75.7813 101.153 75.7815 101.345 75.883 101.522C75.9845 101.699 76.1488 101.794 76.25 101.734Z" fill="white"/>
<path d="M61.8513 90.2598L61.7332 90.191L61.7186 93.9133L61.7178 93.9587L80.0923 104.705L80.2103 104.774L80.225 101.051L80.2257 101.006L61.8513 90.2598ZM80.0529 104.498L61.8768 93.868L61.8907 90.4662L80.0668 101.097L80.0529 104.498Z" fill="#4466FB"/>
<path d="M79.6047 106.514V109.658L79.5903 112.569L78.3116 111.812V108.916L78.3259 105.758L79.6047 106.514Z" fill="#1B2A4F"/>
<path d="M65.0229 97.9716L66.3016 98.7284L66.2872 101.887V104.783L64.9942 104.026L65.0085 101.13L65.0229 97.9716Z" fill="#1B2A4F"/>
<path d="M68.2836 99.8925L68.9589 100.286L68.9445 103.429V106.34L68.2692 105.947L67.6514 105.583L67.6658 102.687L67.6802 99.5287L68.2836 99.8925Z" fill="#1B2A4F"/>
<path d="M72.9968 102.643L74.2898 103.4L74.2755 106.558V109.454L72.9825 108.697V105.801L72.9968 102.643Z" fill="#1B2A4F"/>
<path d="M76.2587 104.55L76.9484 104.957V108.101L76.934 111.012L76.2443 110.604L75.6553 110.255V107.359L75.6697 104.2L76.2587 104.55Z" fill="#1B2A4F"/>
<path d="M70.3386 101.086L71.6173 101.843V104.986L71.603 107.897L70.3242 107.14V104.244L70.3386 101.086Z" fill="#1B2A4F"/>
<path d="M62.3503 96.4285L63.6434 97.1707L63.6291 100.329V103.225L62.336 102.483L62.3503 99.5722V96.4285Z" fill="#1B2A4F"/>
<path d="M92.8795 104.11C92.8679 104.122 91.8478 105.672 92.2767 108.866C93.1693 115.594 90.5496 121.289 82.6669 118.8L82.354 118.706L82.041 118.436C74.17 111.708 71.5966 102.971 72.5239 97.3112C72.9644 94.6104 71.9559 91.8979 71.9559 91.8744L71.3184 90.2187L75.6075 89.1619L76.3146 89.8899C76.8362 90.4301 77.381 90.8645 77.9259 91.1933C79.9313 92.3559 81.5194 91.7688 81.5309 91.7688L82.4352 91.4282L83.3277 92.8255C83.3393 92.8373 84.9274 95.2798 86.9213 96.4423C87.466 96.771 88.0109 96.9707 88.5441 97.0411L89.2397 97.135L93.5171 103.206L92.8795 104.11Z" fill="#B7C5FD"/>
<path d="M95.3648 102.113L91.0913 96.042L90.3888 95.9489C89.8703 95.8824 89.3189 95.6763 88.7674 95.3571C86.7784 94.1867 85.1963 91.7529 85.1831 91.7396L84.2838 90.3364L83.3845 90.6823L83.3647 90.6889C83.1678 90.7487 81.6514 91.1943 79.7805 90.0971C79.2291 89.7779 78.6843 89.339 78.159 88.8003L77.4567 88.0688L73.17 89.1328L71.3328 90.2152L75.6081 89.1617L76.3152 89.8897C76.8369 90.4299 77.3817 90.8644 77.9265 91.1931C79.9319 92.3557 81.52 91.7686 81.5316 91.7686L82.4358 91.428L83.3284 92.8254C83.34 92.8371 84.9281 95.2796 86.9219 96.4421C87.4667 96.7709 88.0116 96.9705 88.5448 97.041L89.2403 97.1349L93.5178 103.206L92.8802 104.11C92.8686 104.122 91.8485 105.672 92.2774 108.866C92.8342 113.063 92.0232 116.857 89.4215 118.514L91.1176 117.521C93.8419 115.912 94.6953 112.055 94.1241 107.772C93.704 104.58 94.7215 103.031 94.7281 103.018L95.3648 102.113Z" fill="#D9DDF6"/>
<path d="M82.4247 93.5379C82.521 93.6896 84.3508 96.5727 86.9148 98.0722C87.5866 98.4651 88.3023 98.7527 89.0387 98.8525L91.6688 102.59C91.6041 102.681 90.3749 104.408 90.8971 108.33C91.6166 113.754 89.7495 119.362 82.3589 117.033C74.9795 110.724 73.1499 102.954 73.8973 98.3875C74.4397 95.0886 73.2242 91.9312 73.1602 91.765L75.8026 91.1115C76.5382 91.8725 77.2533 92.4217 77.9256 92.8149C80.4903 94.3148 82.328 93.5767 82.4247 93.5379Z" fill="#3955D1"/>
<path d="M84.8858 104.864C85.451 105.194 85.9052 105.986 85.9034 106.644L85.8896 111.567C85.8878 112.214 85.4306 112.478 84.8655 112.147L79.3965 108.949C78.8314 108.618 78.3771 107.821 78.3789 107.174L78.3927 102.251C78.3946 101.593 78.8518 101.335 79.4169 101.665L84.8858 104.864ZM82.482 107.464C82.7741 107.481 82.9755 107.264 82.9766 106.871C82.9781 106.33 82.6056 105.682 82.1453 105.413C81.685 105.144 81.3101 105.355 81.3086 105.896C81.3075 106.288 81.5071 106.74 81.7984 107.064L81.7943 108.502L82.478 108.902L82.482 107.464Z" fill="white"/>
<path d="M82.1798 98.695C82.2033 98.7087 82.2266 98.7227 82.2502 98.7372C83.7039 99.6352 84.8847 101.803 84.8798 103.559L84.8761 104.859L83.9874 104.339L83.9911 103.039C83.9944 101.84 83.1997 100.366 82.2154 99.7529C82.1984 99.7425 82.1814 99.7323 82.1645 99.7224C81.686 99.4425 81.2273 99.3906 80.8829 99.5741C80.5218 99.772 80.3242 100.204 80.3226 100.782L80.3187 102.193L79.4254 101.671L79.4294 100.26C79.4318 99.4002 79.7257 98.7644 80.2652 98.4689C80.783 98.1905 81.4668 98.2781 82.1798 98.695Z" fill="white"/>
<path d="M60.2992 55.6553L81.7968 43L104.084 56.0347L82.5864 68.69L60.2992 55.6553Z" fill="#384E85"/>
<path d="M97.2431 55.0234C98.0187 55.4771 98.0223 56.2122 97.2517 56.6659L83.6395 64.6791C82.8689 65.1328 81.616 65.1331 80.8404 64.6794L67.1391 56.6663C66.3635 56.2126 66.3594 55.4772 67.13 55.0235L80.7422 47.0103C81.5128 46.5566 82.7662 46.5566 83.5419 47.0103L97.2431 55.0234Z" fill="#1B2A4F"/>
</svg>
