<svg width="164" height="164" viewBox="0 0 164 164" fill="none" xmlns="http://www.w3.org/2000/svg">
<circle cx="82" cy="82" r="82" fill="#F9F9FA"/>
<path d="M65.0572 56.2929L81.0908 47.8168L81.0711 86.9769L65.0375 96.2946L65.0572 56.2929Z" fill="#1B2A4F"/>
<path d="M49.4287 48.1116L65.4623 38.7939L81.0904 47.8168L65.0568 57.1345L49.4287 48.1116Z" fill="#384E85"/>
<path d="M65.0573 57.1345L65.0375 96.2946L49.4094 87.2717L49.4292 48.1116L65.0573 57.1345Z" fill="#2E4277"/>
<path d="M51.3167 50.2928L50.3731 49.748L50.3546 86.726L64.0934 94.6585L64.0943 93.4784L51.2992 86.0908L51.3167 50.2928Z" fill="#384E85"/>
<path d="M51.3165 50.2928L51.299 86.0908L64.0941 93.4785L64.1126 57.6796L51.3165 50.2928Z" fill="#1B2A4F"/>
<path d="M63.1463 59.0179L63.133 63.2611L52.5925 57.1755L52.6058 52.9324L63.1463 59.0179Z" fill="#2E4277"/>
<path d="M55.1526 55.6519L55.5334 55.4305L55.5195 58.1601L55.1386 58.3815L55.1526 55.6519Z" fill="#3955D1"/>
<path d="M54.4848 55.2662L54.8656 55.0449L55.5334 55.4305L55.1525 55.6518L54.4848 55.2662Z" fill="#6BB5FB"/>
<path d="M55.1525 55.6518L55.1385 58.3814L54.4708 57.9958L54.4847 55.2662L55.1525 55.6518Z" fill="#4466FB"/>
<path d="M56.5148 56.4385L56.8956 56.2172L56.8816 58.9468L56.5008 59.1681L56.5148 56.4385Z" fill="#3955D1"/>
<path d="M55.8469 56.0529L56.2278 55.8315L56.8955 56.2171L56.5147 56.4384L55.8469 56.0529Z" fill="#6BB5FB"/>
<path d="M56.5146 56.4384L56.5007 59.168L55.8329 58.7825L55.8469 56.0529L56.5146 56.4384Z" fill="#4466FB"/>
<path d="M57.8775 57.2251L58.2583 57.0038L58.2444 59.7334L57.8635 59.9547L57.8775 57.2251Z" fill="#3955D1"/>
<path d="M57.2097 56.8395L57.5905 56.6182L58.2583 57.0037L57.8774 57.225L57.2097 56.8395Z" fill="#6BB5FB"/>
<path d="M57.8774 57.225L57.8634 59.9546L57.1956 59.5691L57.2096 56.8395L57.8774 57.225Z" fill="#4466FB"/>
<path d="M59.2395 58.0116L59.6204 57.7903L59.6064 60.5199L59.2256 60.7412L59.2395 58.0116Z" fill="#3955D1"/>
<path d="M58.5717 57.626L58.9526 57.4047L59.6203 57.7902L59.2395 58.0115L58.5717 57.626Z" fill="#6BB5FB"/>
<path d="M59.2394 58.0115L59.2255 60.7411L58.5577 60.3556L58.5717 57.626L59.2394 58.0115Z" fill="#4466FB"/>
<path d="M60.6022 58.7981L60.9831 58.5768L60.9691 61.3064L60.5883 61.5277L60.6022 58.7981Z" fill="#3955D1"/>
<path d="M59.9344 58.4125L60.3152 58.1912L60.983 58.5767L60.6021 58.798L59.9344 58.4125Z" fill="#6BB5FB"/>
<path d="M60.6021 58.798L60.5881 61.5276L59.9204 61.1421L59.9343 58.4125L60.6021 58.798Z" fill="#4466FB"/>
<path d="M61.9643 59.5849L62.3452 59.3635L62.3312 62.0931L61.9504 62.3144L61.9643 59.5849Z" fill="#3955D1"/>
<path d="M61.2965 59.1992L61.6774 58.9779L62.3451 59.3634L61.9643 59.5848L61.2965 59.1992Z" fill="#6BB5FB"/>
<path d="M61.9642 59.5847L61.9502 62.3143L61.2825 61.9288L61.2965 59.1992L61.9642 59.5847Z" fill="#4466FB"/>
<path d="M53.79 54.8653L54.1708 54.6439L54.1568 57.3735L53.776 57.5948L53.79 54.8653Z" fill="#3955D1"/>
<path d="M53.1222 54.4796L53.503 54.2583L54.1708 54.6438L53.7899 54.8652L53.1222 54.4796Z" fill="#6BB5FB"/>
<path d="M53.7898 54.8651L53.7759 57.5947L53.1081 57.2092L53.1221 54.4796L53.7898 54.8651Z" fill="#4466FB"/>
<path d="M63.1463 64.6624L63.133 68.9054L52.5925 62.8199L52.6058 58.5768L63.1463 64.6624Z" fill="#2E4277"/>
<path d="M55.1526 61.2962L55.5334 61.0748L55.5195 63.8044L55.1386 64.0257L55.1526 61.2962Z" fill="#3955D1"/>
<path d="M54.4848 60.9105L54.8656 60.6892L55.5334 61.0747L55.1525 61.2961L54.4848 60.9105Z" fill="#6BB5FB"/>
<path d="M55.1525 61.2961L55.1385 64.0256L54.4708 63.6401L54.4847 60.9105L55.1525 61.2961Z" fill="#4466FB"/>
<path d="M56.5148 62.0829L56.8956 61.8616L56.8816 64.5911L56.5008 64.8125L56.5148 62.0829Z" fill="#3955D1"/>
<path d="M55.8469 61.6973L56.2278 61.476L56.8955 61.8615L56.5147 62.0828L55.8469 61.6973Z" fill="#6BB5FB"/>
<path d="M56.5146 62.0828L56.5007 64.8124L55.8329 64.4269L55.8469 61.6973L56.5146 62.0828Z" fill="#4466FB"/>
<path d="M57.8775 62.8695L58.2583 62.6482L58.2444 65.3778L57.8635 65.5991L57.8775 62.8695Z" fill="#3955D1"/>
<path d="M57.2097 62.4839L57.5905 62.2626L58.2583 62.6481L57.8774 62.8694L57.2097 62.4839Z" fill="#6BB5FB"/>
<path d="M57.8774 62.8694L57.8634 65.599L57.1956 65.2135L57.2096 62.4839L57.8774 62.8694Z" fill="#4466FB"/>
<path d="M59.2395 63.656L59.6204 63.4347L59.6064 66.1643L59.2256 66.3856L59.2395 63.656Z" fill="#3955D1"/>
<path d="M58.5717 63.2704L58.9526 63.0491L59.6203 63.4346L59.2395 63.6559L58.5717 63.2704Z" fill="#6BB5FB"/>
<path d="M59.2394 63.6559L59.2255 66.3855L58.5577 66L58.5717 63.2704L59.2394 63.6559Z" fill="#4466FB"/>
<path d="M60.6022 64.4425L60.9831 64.2212L60.9691 66.9508L60.5883 67.1721L60.6022 64.4425Z" fill="#3955D1"/>
<path d="M59.9344 64.0569L60.3152 63.8356L60.983 64.2211L60.6021 64.4424L59.9344 64.0569Z" fill="#6BB5FB"/>
<path d="M60.6021 64.4424L60.5881 67.172L59.9204 66.7865L59.9343 64.0569L60.6021 64.4424Z" fill="#4466FB"/>
<path d="M61.9643 65.2292L62.3452 65.0079L62.3312 67.7375L61.9504 67.9588L61.9643 65.2292Z" fill="#3955D1"/>
<path d="M61.2965 64.8436L61.6774 64.6223L62.3451 65.0078L61.9643 65.2292L61.2965 64.8436Z" fill="#6BB5FB"/>
<path d="M61.9642 65.2292L61.9502 67.9588L61.2825 67.5732L61.2965 64.8436L61.9642 65.2292Z" fill="#4466FB"/>
<path d="M53.79 60.5096L54.1708 60.2883L54.1568 63.0179L53.776 63.2392L53.79 60.5096Z" fill="#3955D1"/>
<path d="M53.1222 60.124L53.503 59.9027L54.1708 60.2882L53.7899 60.5096L53.1222 60.124Z" fill="#6BB5FB"/>
<path d="M53.7898 60.5096L53.7759 63.2392L53.1081 62.8536L53.1221 60.124L53.7898 60.5096Z" fill="#4466FB"/>
<path d="M63.1463 70.307L63.133 74.5501L52.5925 68.4645L52.6058 64.2214L63.1463 70.307Z" fill="#2E4277"/>
<path d="M55.1526 66.9408L55.5334 66.7195L55.5195 69.4491L55.1386 69.6704L55.1526 66.9408Z" fill="#3955D1"/>
<path d="M54.4848 66.5552L54.8656 66.3339L55.5334 66.7194L55.1525 66.9407L54.4848 66.5552Z" fill="#6BB5FB"/>
<path d="M55.1525 66.9407L55.1385 69.6703L54.4708 69.2848L54.4847 66.5552L55.1525 66.9407Z" fill="#4466FB"/>
<path d="M56.5148 67.7276L56.8956 67.5062L56.8816 70.2358L56.5008 70.4571L56.5148 67.7276Z" fill="#3955D1"/>
<path d="M55.8469 67.3419L56.2278 67.1206L56.8955 67.5061L56.5147 67.7275L55.8469 67.3419Z" fill="#6BB5FB"/>
<path d="M56.5146 67.7274L56.5007 70.457L55.8329 70.0715L55.8469 67.3419L56.5146 67.7274Z" fill="#4466FB"/>
<path d="M57.8775 68.5142L58.2583 68.2928L58.2444 71.0224L57.8635 71.2438L57.8775 68.5142Z" fill="#3955D1"/>
<path d="M57.2097 68.1285L57.5905 67.9072L58.2583 68.2927L57.8774 68.5141L57.2097 68.1285Z" fill="#6BB5FB"/>
<path d="M57.8774 68.5141L57.8634 71.2437L57.1956 70.8581L57.2096 68.1285L57.8774 68.5141Z" fill="#4466FB"/>
<path d="M59.2395 69.3007L59.6204 69.0793L59.6064 71.8089L59.2256 72.0303L59.2395 69.3007Z" fill="#3955D1"/>
<path d="M58.5717 68.915L58.9526 68.6937L59.6203 69.0793L59.2395 69.3006L58.5717 68.915Z" fill="#6BB5FB"/>
<path d="M59.2394 69.3006L59.2255 72.0302L58.5577 71.6446L58.5717 68.915L59.2394 69.3006Z" fill="#4466FB"/>
<path d="M60.6022 70.0872L60.9831 69.8658L60.9691 72.5955L60.5883 72.8168L60.6022 70.0872Z" fill="#3955D1"/>
<path d="M59.9344 69.7016L60.3152 69.4802L60.983 69.8658L60.6021 70.0871L59.9344 69.7016Z" fill="#6BB5FB"/>
<path d="M60.6021 70.087L60.5881 72.8167L59.9204 72.4311L59.9343 69.7015L60.6021 70.087Z" fill="#4466FB"/>
<path d="M61.9643 70.8739L62.3452 70.6526L62.3312 73.3822L61.9504 73.6035L61.9643 70.8739Z" fill="#3955D1"/>
<path d="M61.2965 70.4883L61.6774 70.267L62.3451 70.6525L61.9643 70.8738L61.2965 70.4883Z" fill="#6BB5FB"/>
<path d="M61.9642 70.8738L61.9502 73.6034L61.2825 73.2179L61.2965 70.4883L61.9642 70.8738Z" fill="#4466FB"/>
<path d="M53.79 66.1543L54.1708 65.933L54.1568 68.6626L53.776 68.8839L53.79 66.1543Z" fill="#3955D1"/>
<path d="M53.1222 65.7687L53.503 65.5474L54.1708 65.9329L53.7899 66.1542L53.1222 65.7687Z" fill="#6BB5FB"/>
<path d="M53.7898 66.1542L53.7759 68.8838L53.1081 68.4983L53.1221 65.7687L53.7898 66.1542Z" fill="#4466FB"/>
<path d="M63.1463 75.9514L63.133 80.1945L52.5925 74.109L52.6058 69.8658L63.1463 75.9514Z" fill="#2E4277"/>
<path d="M55.1526 72.5853L55.5334 72.364L55.5195 75.0936L55.1386 75.3149L55.1526 72.5853Z" fill="#3955D1"/>
<path d="M54.4848 72.1997L54.8656 71.9784L55.5334 72.3639L55.1525 72.5852L54.4848 72.1997Z" fill="#6BB5FB"/>
<path d="M55.1525 72.5852L55.1385 75.3148L54.4708 74.9293L54.4847 72.1997L55.1525 72.5852Z" fill="#4466FB"/>
<path d="M56.5148 73.3719L56.8956 73.1506L56.8816 75.8802L56.5008 76.1015L56.5148 73.3719Z" fill="#3955D1"/>
<path d="M55.8469 72.9863L56.2278 72.765L56.8955 73.1505L56.5147 73.3719L55.8469 72.9863Z" fill="#6BB5FB"/>
<path d="M56.5146 73.3719L56.5007 76.1015L55.8329 75.7159L55.8469 72.9863L56.5146 73.3719Z" fill="#4466FB"/>
<path d="M57.8775 74.1586L58.2583 73.9373L58.2444 76.6669L57.8635 76.8882L57.8775 74.1586Z" fill="#3955D1"/>
<path d="M57.2097 73.773L57.5905 73.5516L58.2583 73.9372L57.8774 74.1585L57.2097 73.773Z" fill="#6BB5FB"/>
<path d="M57.8774 74.1585L57.8634 76.8881L57.1956 76.5025L57.2096 73.7729L57.8774 74.1585Z" fill="#4466FB"/>
<path d="M59.2395 74.9451L59.6204 74.7238L59.6064 77.4534L59.2256 77.6747L59.2395 74.9451Z" fill="#3955D1"/>
<path d="M58.5717 74.5594L58.9526 74.3381L59.6203 74.7236L59.2395 74.945L58.5717 74.5594Z" fill="#6BB5FB"/>
<path d="M59.2394 74.945L59.2255 77.6746L58.5577 77.2891L58.5717 74.5594L59.2394 74.945Z" fill="#4466FB"/>
<path d="M60.6022 75.7316L60.9831 75.5103L60.9691 78.2398L60.5883 78.4612L60.6022 75.7316Z" fill="#3955D1"/>
<path d="M59.9344 75.3459L60.3152 75.1246L60.983 75.5102L60.6021 75.7315L59.9344 75.3459Z" fill="#6BB5FB"/>
<path d="M60.6021 75.7315L60.5881 78.4611L59.9204 78.0755L59.9343 75.3459L60.6021 75.7315Z" fill="#4466FB"/>
<path d="M61.9643 76.5183L62.3452 76.297L62.3312 79.0266L61.9504 79.2479L61.9643 76.5183Z" fill="#3955D1"/>
<path d="M61.2965 76.1327L61.6774 75.9114L62.3451 76.2969L61.9643 76.5182L61.2965 76.1327Z" fill="#6BB5FB"/>
<path d="M61.9642 76.5182L61.9502 79.2478L61.2825 78.8623L61.2965 76.1327L61.9642 76.5182Z" fill="#4466FB"/>
<path d="M53.79 71.7987L54.1708 71.5774L54.1568 74.307L53.776 74.5283L53.79 71.7987Z" fill="#3955D1"/>
<path d="M53.1222 71.4131L53.503 71.1918L54.1708 71.5773L53.7899 71.7986L53.1222 71.4131Z" fill="#6BB5FB"/>
<path d="M53.7898 71.7986L53.7759 74.5282L53.1081 74.1427L53.1221 71.4131L53.7898 71.7986Z" fill="#4466FB"/>
<path d="M63.1463 81.5959L63.133 85.839L52.5925 79.7535L52.6058 75.5104L63.1463 81.5959Z" fill="#2E4277"/>
<path d="M55.1526 78.2297L55.5334 78.0084L55.5195 80.738L55.1386 80.9593L55.1526 78.2297Z" fill="#3955D1"/>
<path d="M54.4848 77.8441L54.8656 77.6228L55.5334 78.0083L55.1525 78.2297L54.4848 77.8441Z" fill="#6BB5FB"/>
<path d="M55.1525 78.2296L55.1385 80.9592L54.4708 80.5737L54.4847 77.8441L55.1525 78.2296Z" fill="#4466FB"/>
<path d="M56.5148 79.0165L56.8956 78.7952L56.8816 81.5248L56.5008 81.7461L56.5148 79.0165Z" fill="#3955D1"/>
<path d="M55.8469 78.6309L56.2278 78.4095L56.8955 78.7951L56.5147 79.0164L55.8469 78.6309Z" fill="#6BB5FB"/>
<path d="M56.5146 79.0164L56.5007 81.746L55.8329 81.3605L55.8469 78.6309L56.5146 79.0164Z" fill="#4466FB"/>
<path d="M57.8775 79.803L58.2583 79.5817L58.2444 82.3112L57.8635 82.5326L57.8775 79.803Z" fill="#3955D1"/>
<path d="M57.2097 79.4174L57.5905 79.196L58.2583 79.5816L57.8774 79.8029L57.2097 79.4174Z" fill="#6BB5FB"/>
<path d="M57.8774 79.8029L57.8634 82.5325L57.1956 82.147L57.2096 79.4174L57.8774 79.8029Z" fill="#4466FB"/>
<path d="M59.2395 80.5896L59.6204 80.3683L59.6064 83.0979L59.2256 83.3192L59.2395 80.5896Z" fill="#3955D1"/>
<path d="M58.5717 80.204L58.9526 79.9827L59.6203 80.3682L59.2395 80.5895L58.5717 80.204Z" fill="#6BB5FB"/>
<path d="M59.2394 80.5895L59.2255 83.3191L58.5577 82.9336L58.5717 80.204L59.2394 80.5895Z" fill="#4466FB"/>
<path d="M60.6022 81.3761L60.9831 81.1548L60.9691 83.8844L60.5883 84.1057L60.6022 81.3761Z" fill="#3955D1"/>
<path d="M59.9344 80.9905L60.3152 80.7692L60.983 81.1547L60.6021 81.376L59.9344 80.9905Z" fill="#6BB5FB"/>
<path d="M60.6021 81.376L60.5881 84.1056L59.9204 83.7201L59.9343 80.9905L60.6021 81.376Z" fill="#4466FB"/>
<path d="M61.9643 82.1628L62.3452 81.9415L62.3312 84.6711L61.9504 84.8924L61.9643 82.1628Z" fill="#3955D1"/>
<path d="M61.2965 81.7772L61.6774 81.5559L62.3451 81.9414L61.9643 82.1628L61.2965 81.7772Z" fill="#6BB5FB"/>
<path d="M61.9642 82.1628L61.9502 84.8924L61.2825 84.5068L61.2965 81.7772L61.9642 82.1628Z" fill="#4466FB"/>
<path d="M53.79 77.4432L54.1708 77.2219L54.1568 79.9515L53.776 80.1728L53.79 77.4432Z" fill="#3955D1"/>
<path d="M53.1222 77.0576L53.503 76.8363L54.1708 77.2218L53.7899 77.4431L53.1222 77.0576Z" fill="#6BB5FB"/>
<path d="M53.7898 77.4431L53.7759 80.1727L53.1081 79.7872L53.1221 77.0576L53.7898 77.4431Z" fill="#4466FB"/>
<path d="M63.1463 87.2404L63.133 91.4835L52.5925 85.3979L52.6058 81.1548L63.1463 87.2404Z" fill="#2E4277"/>
<path d="M55.1526 83.8743L55.5334 83.653L55.5195 86.3825L55.1386 86.6039L55.1526 83.8743Z" fill="#3955D1"/>
<path d="M54.4848 83.4886L54.8656 83.2673L55.5334 83.6529L55.1525 83.8742L54.4848 83.4886Z" fill="#6BB5FB"/>
<path d="M55.1525 83.8742L55.1385 86.6038L54.4708 86.2183L54.4847 83.4886L55.1525 83.8742Z" fill="#4466FB"/>
<path d="M56.5148 84.6609L56.8956 84.4396L56.8816 87.1692L56.5008 87.3905L56.5148 84.6609Z" fill="#3955D1"/>
<path d="M55.8469 84.2753L56.2278 84.054L56.8955 84.4395L56.5147 84.6608L55.8469 84.2753Z" fill="#6BB5FB"/>
<path d="M56.5146 84.6608L56.5007 87.3904L55.8329 87.0049L55.8469 84.2753L56.5146 84.6608Z" fill="#4466FB"/>
<path d="M57.8775 85.4475L58.2583 85.2262L58.2444 87.9558L57.8635 88.1771L57.8775 85.4475Z" fill="#3955D1"/>
<path d="M57.2097 85.0619L57.5905 84.8406L58.2583 85.2261L57.8774 85.4474L57.2097 85.0619Z" fill="#6BB5FB"/>
<path d="M57.8774 85.4474L57.8634 88.177L57.1956 87.7915L57.2096 85.0619L57.8774 85.4474Z" fill="#4466FB"/>
<path d="M59.2395 86.234L59.6204 86.0127L59.6064 88.7423L59.2256 88.9636L59.2395 86.234Z" fill="#3955D1"/>
<path d="M58.5717 85.8484L58.9526 85.6271L59.6203 86.0126L59.2395 86.2339L58.5717 85.8484Z" fill="#6BB5FB"/>
<path d="M59.2394 86.2339L59.2255 88.9635L58.5577 88.578L58.5717 85.8484L59.2394 86.2339Z" fill="#4466FB"/>
<path d="M60.6022 87.0205L60.9831 86.7992L60.9691 89.5288L60.5883 89.7501L60.6022 87.0205Z" fill="#3955D1"/>
<path d="M59.9344 86.6349L60.3152 86.4136L60.983 86.7991L60.6021 87.0204L59.9344 86.6349Z" fill="#6BB5FB"/>
<path d="M60.6021 87.0204L60.5881 89.75L59.9204 89.3645L59.9343 86.6349L60.6021 87.0204Z" fill="#4466FB"/>
<path d="M61.9643 87.8073L62.3452 87.5859L62.3312 90.3155L61.9504 90.5369L61.9643 87.8073Z" fill="#3955D1"/>
<path d="M61.2965 87.4216L61.6774 87.2003L62.3451 87.5858L61.9643 87.8072L61.2965 87.4216Z" fill="#6BB5FB"/>
<path d="M61.9642 87.8072L61.9502 90.5367L61.2825 90.1512L61.2965 87.4216L61.9642 87.8072Z" fill="#4466FB"/>
<path d="M53.79 83.0877L54.1708 82.8663L54.1568 85.5959L53.776 85.8172L53.79 83.0877Z" fill="#3955D1"/>
<path d="M53.1222 82.702L53.503 82.4807L54.1708 82.8662L53.7899 83.0876L53.1222 82.702Z" fill="#6BB5FB"/>
<path d="M53.7898 83.0876L53.7759 85.8171L53.1081 85.4316L53.1221 82.702L53.7898 83.0876Z" fill="#4466FB"/>
<path d="M77.3333 86.1054C77.277 86.1379 77.2306 86.2183 77.2308 86.283C77.231 86.3491 77.2776 86.3757 77.334 86.3432L79.8369 84.8982C79.8932 84.8656 79.9396 84.7853 79.9394 84.7192C79.9392 84.6545 79.8925 84.6278 79.8362 84.6604L77.3333 86.1054Z" fill="#384E85"/>
<path d="M77.3323 85.5539C77.2759 85.5864 77.2296 85.6667 77.2297 85.7329C77.2299 85.7976 77.2766 85.8242 77.3329 85.7917L79.8358 84.3466C79.8921 84.3141 79.9385 84.2338 79.9383 84.169C79.9381 84.1029 79.8915 84.0763 79.8351 84.1088L77.3323 85.5539Z" fill="#384E85"/>
<path d="M77.3306 85.0036C77.2743 85.0361 77.2279 85.1151 77.2281 85.1812C77.2283 85.2459 77.275 85.2725 77.3313 85.24L79.8342 83.795C79.8905 83.7624 79.9369 83.6821 79.9367 83.6174C79.9365 83.5512 79.8898 83.5261 79.8335 83.5586L77.3306 85.0036Z" fill="#384E85"/>
<path d="M77.3289 84.4521C77.2726 84.4846 77.2262 84.5636 77.2264 84.6297C77.2266 84.6944 77.2732 84.721 77.3296 84.6885L79.8325 83.2434C79.8888 83.2109 79.9352 83.1306 79.935 83.0659C79.9348 82.9997 79.8881 82.9745 79.8318 83.0071L77.3289 84.4521Z" fill="#384E85"/>
<path d="M77.3257 83.349C77.2694 83.3815 77.223 83.4604 77.2232 83.5265C77.2234 83.5913 77.2701 83.6179 77.3264 83.5853L79.8293 82.1403C79.8856 82.1078 79.932 82.0274 79.9318 81.9627C79.9316 81.8966 79.8849 81.8714 79.8286 81.9039L77.3257 83.349Z" fill="#384E85"/>
<path d="M77.3273 83.9006C77.271 83.9331 77.2246 84.012 77.2248 84.0782C77.225 84.1429 77.2717 84.1695 77.328 84.137L79.8309 82.6919C79.8872 82.6594 79.9336 82.5791 79.9334 82.5144C79.9332 82.4482 79.8866 82.423 79.8302 82.4555L77.3273 83.9006Z" fill="#384E85"/>
<path d="M77.3333 81.085C77.277 81.1176 77.2306 81.1979 77.2308 81.2626C77.231 81.3287 77.2776 81.3553 77.334 81.3228L79.8369 79.8778C79.8932 79.8452 79.9396 79.7649 79.9394 79.6988C79.9392 79.6341 79.8925 79.6075 79.8362 79.64L77.3333 81.085Z" fill="#384E85"/>
<path d="M77.3323 80.5335C77.2759 80.566 77.2296 80.6463 77.2297 80.7124C77.2299 80.7772 77.2766 80.8038 77.3329 80.7713L79.8358 79.3262C79.8921 79.2937 79.9385 79.2134 79.9383 79.1486C79.9381 79.0825 79.8915 79.0559 79.8351 79.0884L77.3323 80.5335Z" fill="#384E85"/>
<path d="M77.3306 79.9834C77.2743 80.0159 77.2279 80.0948 77.2281 80.1609C77.2283 80.2257 77.275 80.2523 77.3313 80.2197L79.8342 78.7747C79.8905 78.7422 79.9369 78.6618 79.9367 78.5971C79.9365 78.531 79.8898 78.5058 79.8335 78.5383L77.3306 79.9834Z" fill="#384E85"/>
<path d="M77.3289 79.4317C77.2726 79.4642 77.2262 79.5432 77.2264 79.6093C77.2266 79.674 77.2732 79.7006 77.3296 79.6681L79.8325 78.2231C79.8888 78.1905 79.9352 78.1102 79.935 78.0455C79.9348 77.9793 79.8881 77.9542 79.8318 77.9867L77.3289 79.4317Z" fill="#384E85"/>
<path d="M77.3257 78.3287C77.2694 78.3612 77.223 78.4401 77.2232 78.5063C77.2234 78.571 77.2701 78.5976 77.3264 78.5651L79.8293 77.12C79.8856 77.0875 79.932 77.0072 79.9318 76.9425C79.9316 76.8763 79.8849 76.8511 79.8286 76.8836L77.3257 78.3287Z" fill="#384E85"/>
<path d="M77.3273 78.8802C77.271 78.9127 77.2246 78.9916 77.2248 79.0578C77.225 79.1225 77.2717 79.1491 77.328 79.1166L79.8309 77.6715C79.8872 77.639 79.9336 77.5587 79.9334 77.494C79.9332 77.4278 79.8866 77.4026 79.8302 77.4352L77.3273 78.8802Z" fill="#384E85"/>
<path d="M77.3333 76.0645C77.277 76.0971 77.2306 76.1774 77.2308 76.2421C77.231 76.3082 77.2776 76.3348 77.334 76.3023L79.8369 74.8573C79.8932 74.8247 79.9396 74.7444 79.9394 74.6783C79.9392 74.6136 79.8925 74.587 79.8362 74.6195L77.3333 76.0645Z" fill="#384E85"/>
<path d="M77.3323 75.5131C77.2759 75.5456 77.2296 75.6259 77.2297 75.6921C77.2299 75.7568 77.2766 75.7834 77.3329 75.7509L79.8358 74.3058C79.8921 74.2733 79.9385 74.193 79.9383 74.1283C79.9381 74.0621 79.8915 74.0355 79.8351 74.0681L77.3323 75.5131Z" fill="#384E85"/>
<path d="M77.3306 74.9629C77.2743 74.9954 77.2279 75.0743 77.2281 75.1404C77.2283 75.2052 77.275 75.2318 77.3313 75.1992L79.8342 73.7542C79.8905 73.7217 79.9369 73.6413 79.9367 73.5766C79.9365 73.5105 79.8898 73.4853 79.8335 73.5178L77.3306 74.9629Z" fill="#384E85"/>
<path d="M77.3289 74.4113C77.2726 74.4439 77.2262 74.5228 77.2264 74.5889C77.2266 74.6536 77.2732 74.6802 77.3296 74.6477L79.8325 73.2027C79.8888 73.1702 79.9352 73.0898 79.935 73.0251C79.9348 72.959 79.8881 72.9338 79.8318 72.9663L77.3289 74.4113Z" fill="#384E85"/>
<path d="M77.3257 73.3082C77.2694 73.3407 77.223 73.4196 77.2232 73.4857C77.2234 73.5505 77.2701 73.5771 77.3264 73.5446L79.8293 72.0995C79.8856 72.067 79.932 71.9867 79.9318 71.9219C79.9316 71.8558 79.8849 71.8306 79.8286 71.8631L77.3257 73.3082Z" fill="#384E85"/>
<path d="M77.3273 73.8597C77.271 73.8922 77.2246 73.9711 77.2248 74.0373C77.225 74.102 77.2717 74.1286 77.328 74.0961L79.8309 72.651C79.8872 72.6185 79.9336 72.5382 79.9334 72.4735C79.9332 72.4073 79.8866 72.3821 79.8302 72.4147L77.3273 73.8597Z" fill="#384E85"/>
<path d="M77.3333 71.044C77.277 71.0765 77.2306 71.1569 77.2308 71.2216C77.231 71.2877 77.2776 71.3143 77.334 71.2818L79.8369 69.8368C79.8932 69.8042 79.9396 69.7239 79.9394 69.6578C79.9392 69.5931 79.8925 69.5665 79.8362 69.599L77.3333 71.044Z" fill="#384E85"/>
<path d="M77.3323 70.4926C77.2759 70.5251 77.2296 70.6054 77.2297 70.6716C77.2299 70.7363 77.2766 70.7629 77.3329 70.7304L79.8358 69.2853C79.8921 69.2528 79.9385 69.1725 79.9383 69.1078C79.9381 69.0416 79.8915 69.015 79.8351 69.0475L77.3323 70.4926Z" fill="#384E85"/>
<path d="M77.3306 69.9423C77.2743 69.9749 77.2279 70.0538 77.2281 70.1199C77.2283 70.1846 77.275 70.2113 77.3313 70.1787L79.8342 68.7337C79.8905 68.7012 79.9369 68.6208 79.9367 68.5561C79.9365 68.49 79.8898 68.4648 79.8335 68.4973L77.3306 69.9423Z" fill="#384E85"/>
<path d="M77.3289 69.3908C77.2726 69.4234 77.2262 69.5023 77.2264 69.5684C77.2266 69.6331 77.2732 69.6597 77.3296 69.6272L79.8325 68.1822C79.8888 68.1496 79.9352 68.0693 79.935 68.0046C79.9348 67.9385 79.8881 67.9133 79.8318 67.9458L77.3289 69.3908Z" fill="#384E85"/>
<path d="M77.3257 68.2877C77.2694 68.3202 77.223 68.3991 77.2232 68.4652C77.2234 68.53 77.2701 68.5566 77.3264 68.5241L79.8293 67.079C79.8856 67.0465 79.932 66.9662 79.9318 66.9014C79.9316 66.8353 79.8849 66.8101 79.8286 66.8426L77.3257 68.2877Z" fill="#384E85"/>
<path d="M77.3273 68.8392C77.271 68.8717 77.2246 68.9506 77.2248 69.0168C77.225 69.0815 77.2717 69.1081 77.328 69.0756L79.8309 67.6305C79.8872 67.598 79.9336 67.5177 79.9334 67.453C79.9332 67.3868 79.8866 67.3616 79.8302 67.3941L77.3273 68.8392Z" fill="#384E85"/>
<path d="M77.3333 66.0236C77.277 66.0562 77.2306 66.1365 77.2308 66.2012C77.231 66.2673 77.2776 66.2939 77.334 66.2614L79.8369 64.8164C79.8932 64.7838 79.9396 64.7035 79.9394 64.6374C79.9392 64.5727 79.8925 64.5461 79.8362 64.5786L77.3333 66.0236Z" fill="#384E85"/>
<path d="M77.3323 65.4721C77.2759 65.5046 77.2296 65.5849 77.2297 65.651C77.2299 65.7158 77.2766 65.7424 77.3329 65.7099L79.8358 64.2648C79.8921 64.2323 79.9385 64.152 79.9383 64.0872C79.9381 64.0211 79.8915 63.9945 79.8351 64.027L77.3323 65.4721Z" fill="#384E85"/>
<path d="M77.3306 64.9218C77.2743 64.9544 77.2279 65.0333 77.2281 65.0994C77.2283 65.1641 77.275 65.1908 77.3313 65.1582L79.8342 63.7132C79.8905 63.6807 79.9369 63.6003 79.9367 63.5356C79.9365 63.4695 79.8898 63.4443 79.8335 63.4768L77.3306 64.9218Z" fill="#384E85"/>
<path d="M77.3289 64.3703C77.2726 64.4028 77.2262 64.4818 77.2264 64.5479C77.2266 64.6126 77.2732 64.6392 77.3296 64.6067L79.8325 63.1617C79.8888 63.1291 79.9352 63.0488 79.935 62.9841C79.9348 62.9179 79.8881 62.8928 79.8318 62.9253L77.3289 64.3703Z" fill="#384E85"/>
<path d="M77.3257 63.2672C77.2694 63.2997 77.223 63.3786 77.2232 63.4447C77.2234 63.5095 77.2701 63.5361 77.3264 63.5036L79.8293 62.0585C79.8856 62.026 79.932 61.9456 79.9318 61.8809C79.9316 61.8148 79.8849 61.7896 79.8286 61.8221L77.3257 63.2672Z" fill="#384E85"/>
<path d="M77.3273 63.8188C77.271 63.8513 77.2246 63.9302 77.2248 63.9964C77.225 64.0611 77.2717 64.0877 77.328 64.0552L79.8309 62.6101C79.8872 62.5776 79.9336 62.4973 79.9334 62.4326C79.9332 62.3664 79.8866 62.3412 79.8302 62.3738L77.3273 63.8188Z" fill="#384E85"/>
<path d="M77.3333 61.0033C77.277 61.0358 77.2306 61.1161 77.2308 61.1808C77.231 61.2469 77.2776 61.2736 77.334 61.241L79.8369 59.796C79.8932 59.7635 79.9396 59.6831 79.9394 59.617C79.9392 59.5523 79.8925 59.5257 79.8362 59.5582L77.3333 61.0033Z" fill="#384E85"/>
<path d="M77.3323 60.4516C77.2759 60.4841 77.2296 60.5644 77.2297 60.6305C77.2299 60.6953 77.2766 60.7219 77.3329 60.6894L79.8358 59.2443C79.8921 59.2118 79.9385 59.1315 79.9383 59.0667C79.9381 59.0006 79.8915 58.974 79.8351 59.0065L77.3323 60.4516Z" fill="#384E85"/>
<path d="M77.3306 59.9016C77.2743 59.9341 77.2279 60.013 77.2281 60.0792C77.2283 60.1439 77.275 60.1705 77.3313 60.138L79.8342 58.6929C79.8905 58.6604 79.9369 58.5801 79.9367 58.5153C79.9365 58.4492 79.8898 58.424 79.8335 58.4565L77.3306 59.9016Z" fill="#384E85"/>
<path d="M77.3289 59.3498C77.2726 59.3823 77.2262 59.4613 77.2264 59.5274C77.2266 59.5921 77.2732 59.6187 77.3296 59.5862L79.8325 58.1412C79.8888 58.1086 79.9352 58.0283 79.935 57.9636C79.9348 57.8974 79.8881 57.8722 79.8318 57.9048L77.3289 59.3498Z" fill="#384E85"/>
<path d="M77.3257 58.2469C77.2694 58.2794 77.223 58.3583 77.2232 58.4245C77.2234 58.4892 77.2701 58.5158 77.3264 58.4833L79.8293 57.0382C79.8856 57.0057 79.932 56.9254 79.9318 56.8607C79.9316 56.7945 79.8849 56.7693 79.8286 56.8019L77.3257 58.2469Z" fill="#384E85"/>
<path d="M77.3273 58.7983C77.271 58.8308 77.2246 58.9097 77.2248 58.9759C77.225 59.0406 77.2717 59.0672 77.328 59.0347L79.8309 57.5896C79.8872 57.5571 79.9336 57.4768 79.9334 57.4121C79.9332 57.3459 79.8866 57.3207 79.8302 57.3533L77.3273 58.7983Z" fill="#384E85"/>
<path d="M77.3333 55.9827C77.277 56.0153 77.2306 56.0956 77.2308 56.1603C77.231 56.2264 77.2776 56.253 77.334 56.2205L79.8369 54.7755C79.8932 54.743 79.9396 54.6626 79.9394 54.5965C79.9392 54.5318 79.8925 54.5052 79.8362 54.5377L77.3333 55.9827Z" fill="#384E85"/>
<path d="M77.3323 55.4312C77.2759 55.4637 77.2296 55.544 77.2297 55.6101C77.2299 55.6749 77.2766 55.7015 77.3329 55.669L79.8358 54.2239C79.8921 54.1914 79.9385 54.1111 79.9383 54.0464C79.9381 53.9802 79.8915 53.9536 79.8351 53.9861L77.3323 55.4312Z" fill="#384E85"/>
<path d="M77.3306 54.8811C77.2743 54.9136 77.2279 54.9925 77.2281 55.0586C77.2283 55.1234 77.275 55.15 77.3313 55.1174L79.8342 53.6724C79.8905 53.6399 79.9369 53.5595 79.9367 53.4948C79.9365 53.4287 79.8898 53.4035 79.8335 53.436L77.3306 54.8811Z" fill="#384E85"/>
<path d="M77.3289 54.3294C77.2726 54.362 77.2262 54.4409 77.2264 54.507C77.2266 54.5717 77.2732 54.5983 77.3296 54.5658L79.8325 53.1208C79.8888 53.0882 79.9352 53.0079 79.935 52.9432C79.9348 52.8771 79.8881 52.8519 79.8318 52.8844L77.3289 54.3294Z" fill="#384E85"/>
<path d="M77.3257 53.2264C77.2694 53.2589 77.223 53.3378 77.2232 53.404C77.2234 53.4687 77.2701 53.4953 77.3264 53.4628L79.8293 52.0177C79.8856 51.9852 79.932 51.9049 79.9318 51.8402C79.9316 51.774 79.8849 51.7488 79.8286 51.7814L77.3257 53.2264Z" fill="#384E85"/>
<path d="M77.3273 53.7779C77.271 53.8104 77.2246 53.8894 77.2248 53.9555C77.225 54.0202 77.2717 54.0468 77.328 54.0143L79.8309 52.5692C79.8872 52.5367 79.9336 52.4564 79.9334 52.3917C79.9332 52.3256 79.8866 52.3003 79.8302 52.3329L77.3273 53.7779Z" fill="#384E85"/>
<path d="M63.5445 58.0136L65.0574 57.1344L65.0377 96.2945L63.5248 97.1737L63.5445 58.0136Z" fill="#1B2A4F"/>
<path d="M47.9161 48.9908L49.429 48.1116L65.0571 57.1345L63.5442 58.0137L47.9161 48.9908Z" fill="#1B2A4F"/>
<path d="M47.9209 48.995L47.8987 88.1531L63.5219 97.1718L63.5441 58.0136L47.9209 48.995ZM61.7162 92.3536L49.5145 85.3096L49.5252 50.9719L61.7377 58.016L61.7162 92.3536Z" fill="#2E4277"/>
<path opacity="0.3" d="M49.5299 50.9696L49.5131 86.7908L61.7144 93.8357L61.7321 58.0136L49.5299 50.9696Z" fill="#4466FB"/>
<path opacity="0.3" d="M52.3878 88.4505L61.7194 83.2421L61.72 82.0234L51.1406 87.7304L52.3878 88.4505Z" fill="#4466FB"/>
<path opacity="0.3" d="M49.5131 86.7908L49.7542 86.9299L61.7205 80.669L61.7221 77.5864L49.5145 83.9438L49.5131 86.7908Z" fill="#4466FB"/>
<path opacity="0.3" d="M61.7265 69.3031L49.5187 74.1806L49.5181 75.3992L61.7258 70.5218L61.7265 69.3031Z" fill="#4466FB"/>
<path opacity="0.3" d="M61.7284 64.8662L49.5205 69.7437L49.519 72.8262L61.7268 67.9488L61.7284 64.8662Z" fill="#4466FB"/>
<path opacity="0.3" d="M60.2676 57.1682L49.5245 61.4604L49.524 62.679L61.5149 57.8882L60.2676 57.1682Z" fill="#4466FB"/>
<path opacity="0.3" d="M55.7255 54.5466L49.5261 57.0235L49.5246 60.1061L58.8806 56.368L55.7255 54.5466Z" fill="#4466FB"/>
<path d="M63.1719 77.347L62.4857 77.7414C62.4368 77.7707 62.3944 77.7724 62.3619 77.7544L61.9626 77.523L61.9642 77.8441C61.9658 78.007 62.0229 78.1228 62.1174 78.1782L61.5421 77.8441C61.4492 77.7887 61.3905 77.6746 61.3905 77.5099L61.3856 74.7934C61.384 74.4625 61.617 74.0599 61.9039 73.8953L62.59 73.4993L63.1637 73.8317L62.4792 74.2278C62.1907 74.394 61.9593 74.7966 61.9593 75.1275L61.9625 77.3796L62.5965 77.0129L63.1719 77.347Z" fill="#B7C5FD"/>
<path d="M63.1641 73.8325L63.1653 74.2307L62.4795 74.6266C62.3838 74.6819 62.307 74.816 62.3073 74.926L62.3123 77.6434C62.3126 77.7534 62.3898 77.7974 62.4856 77.7421L63.1713 77.3462L63.1725 77.7456L62.4867 78.1415C62.1995 78.3073 61.9657 78.1729 61.9647 77.844L61.9598 75.1267C61.9589 74.7967 62.1912 74.3943 62.4784 74.2285L63.1641 73.8325Z" fill="#798FFE"/>
<path d="M101.061 76.6363L117.094 68.5759L117.074 107.736L101.041 117.054L101.061 76.6363Z" fill="#1B2A4F"/>
<path d="M85.4319 68.8706L101.466 59.5529L117.094 68.5758L101.06 77.8936L85.4319 68.8706Z" fill="#384E85"/>
<path d="M101.061 77.8936L101.041 117.054L85.4126 108.031L85.4323 68.8706L101.061 77.8936Z" fill="#2E4277"/>
<path d="M87.3199 71.0518L86.3762 70.5071L86.3578 107.485L100.097 115.418L100.098 114.238L87.3024 106.85L87.3199 71.0518Z" fill="#384E85"/>
<path d="M87.3197 71.0519L87.3022 106.85L100.097 114.238L100.116 78.4388L87.3197 71.0519Z" fill="#1B2A4F"/>
<path d="M99.1496 79.7769L99.1363 84.0201L88.5957 77.9344L88.609 73.6913L99.1496 79.7769Z" fill="#2E4277"/>
<path d="M91.1558 76.4108L91.5367 76.1895L91.5227 78.9191L91.1419 79.1404L91.1558 76.4108Z" fill="#3955D1"/>
<path d="M90.488 76.0251L90.8689 75.8038L91.5366 76.1894L91.1558 76.4107L90.488 76.0251Z" fill="#6BB5FB"/>
<path d="M91.1557 76.4107L91.1418 79.1403L90.474 78.7548L90.488 76.0251L91.1557 76.4107Z" fill="#4466FB"/>
<path d="M92.518 77.1974L92.8988 76.9761L92.8849 79.7057L92.504 79.927L92.518 77.1974Z" fill="#3955D1"/>
<path d="M91.8502 76.8118L92.231 76.5905L92.8988 76.976L92.5179 77.1973L91.8502 76.8118Z" fill="#6BB5FB"/>
<path d="M92.5178 77.1973L92.5039 79.9269L91.8361 79.5414L91.8501 76.8118L92.5178 77.1973Z" fill="#4466FB"/>
<path d="M93.8807 77.984L94.2616 77.7627L94.2476 80.4923L93.8668 80.7136L93.8807 77.984Z" fill="#3955D1"/>
<path d="M93.2129 77.5984L93.5937 77.3771L94.2615 77.7626L93.8807 77.9839L93.2129 77.5984Z" fill="#6BB5FB"/>
<path d="M93.8806 77.9839L93.8667 80.7135L93.1989 80.328L93.2128 77.5984L93.8806 77.9839Z" fill="#4466FB"/>
<path d="M95.2428 78.7705L95.6236 78.5492L95.6097 81.2788L95.2288 81.5001L95.2428 78.7705Z" fill="#3955D1"/>
<path d="M94.575 78.3849L94.9558 78.1636L95.6236 78.5491L95.2427 78.7704L94.575 78.3849Z" fill="#6BB5FB"/>
<path d="M95.2427 78.7704L95.2287 81.5L94.5609 81.1145L94.5749 78.3849L95.2427 78.7704Z" fill="#4466FB"/>
<path d="M96.6054 79.5571L96.9863 79.3358L96.9723 82.0654L96.5915 82.2867L96.6054 79.5571Z" fill="#3955D1"/>
<path d="M95.9377 79.1715L96.3185 78.9502L96.9862 79.3357L96.6054 79.557L95.9377 79.1715Z" fill="#6BB5FB"/>
<path d="M96.6053 79.557L96.5914 82.2867L95.9236 81.9011L95.9376 79.1715L96.6053 79.557Z" fill="#4466FB"/>
<path d="M97.9676 80.3438L98.3484 80.1224L98.3345 82.8521L97.9536 83.0734L97.9676 80.3438Z" fill="#3955D1"/>
<path d="M97.2998 79.9581L97.6806 79.7368L98.3484 80.1223L97.9676 80.3437L97.2998 79.9581Z" fill="#6BB5FB"/>
<path d="M97.9675 80.3437L97.9535 83.0733L97.2858 82.6877L97.2997 79.9581L97.9675 80.3437Z" fill="#4466FB"/>
<path d="M89.7932 75.6242L90.174 75.4028L90.1601 78.1324L89.7792 78.3538L89.7932 75.6242Z" fill="#3955D1"/>
<path d="M89.1253 75.2385L89.5062 75.0172L90.174 75.4027L89.7931 75.6241L89.1253 75.2385Z" fill="#6BB5FB"/>
<path d="M89.7931 75.6241L89.7791 78.3537L89.1113 77.9681L89.1253 75.2385L89.7931 75.6241Z" fill="#4466FB"/>
<path d="M99.1496 85.4217L99.1363 89.6648L88.5957 83.5792L88.609 79.3361L99.1496 85.4217Z" fill="#2E4277"/>
<path d="M91.1558 82.0554L91.5367 81.8341L91.5227 84.5637L91.1419 84.7851L91.1558 82.0554Z" fill="#3955D1"/>
<path d="M90.488 81.6698L90.8689 81.4485L91.5366 81.834L91.1558 82.0554L90.488 81.6698Z" fill="#6BB5FB"/>
<path d="M91.1557 82.0553L91.1418 84.785L90.474 84.3994L90.488 81.6698L91.1557 82.0553Z" fill="#4466FB"/>
<path d="M92.518 82.8422L92.8988 82.6208L92.8849 85.3505L92.504 85.5718L92.518 82.8422Z" fill="#3955D1"/>
<path d="M91.8502 82.4565L92.231 82.2352L92.8988 82.6208L92.5179 82.8421L91.8502 82.4565Z" fill="#6BB5FB"/>
<path d="M92.5178 82.8421L92.5039 85.5717L91.8361 85.1862L91.8501 82.4565L92.5178 82.8421Z" fill="#4466FB"/>
<path d="M93.8807 83.6288L94.2616 83.4075L94.2476 86.1371L93.8668 86.3584L93.8807 83.6288Z" fill="#3955D1"/>
<path d="M93.2129 83.2432L93.5937 83.0219L94.2615 83.4074L93.8807 83.6287L93.2129 83.2432Z" fill="#6BB5FB"/>
<path d="M93.8806 83.6287L93.8667 86.3583L93.1989 85.9728L93.2128 83.2432L93.8806 83.6287Z" fill="#4466FB"/>
<path d="M95.2428 84.4153L95.6236 84.194L95.6097 86.9236L95.2288 87.1449L95.2428 84.4153Z" fill="#3955D1"/>
<path d="M94.575 84.0297L94.9558 83.8083L95.6236 84.1939L95.2427 84.4152L94.575 84.0297Z" fill="#6BB5FB"/>
<path d="M95.2427 84.4152L95.2287 87.1448L94.5609 86.7593L94.5749 84.0297L95.2427 84.4152Z" fill="#4466FB"/>
<path d="M96.6054 85.2019L96.9863 84.9806L96.9723 87.7102L96.5915 87.9315L96.6054 85.2019Z" fill="#3955D1"/>
<path d="M95.9377 84.8163L96.3185 84.595L96.9862 84.9805L96.6054 85.2018L95.9377 84.8163Z" fill="#6BB5FB"/>
<path d="M96.6053 85.2018L96.5914 87.9314L95.9236 87.5459L95.9376 84.8163L96.6053 85.2018Z" fill="#4466FB"/>
<path d="M97.9676 85.9885L98.3484 85.7672L98.3345 88.4968L97.9536 88.7181L97.9676 85.9885Z" fill="#3955D1"/>
<path d="M97.2998 85.6029L97.6806 85.3816L98.3484 85.7671L97.9676 85.9884L97.2998 85.6029Z" fill="#6BB5FB"/>
<path d="M97.9675 85.9884L97.9535 88.7181L97.2858 88.3325L97.2997 85.6029L97.9675 85.9884Z" fill="#4466FB"/>
<path d="M89.7932 81.2689L90.174 81.0476L90.1601 83.7772L89.7792 83.9986L89.7932 81.2689Z" fill="#3955D1"/>
<path d="M89.1253 80.8833L89.5062 80.662L90.174 81.0475L89.7931 81.2688L89.1253 80.8833Z" fill="#6BB5FB"/>
<path d="M89.7931 81.2688L89.7791 83.9985L89.1113 83.6129L89.1253 80.8833L89.7931 81.2688Z" fill="#4466FB"/>
<path d="M99.1496 91.0661L99.1363 95.3092L88.5957 89.2236L88.609 84.9805L99.1496 91.0661Z" fill="#2E4277"/>
<path d="M91.1558 87.6998L91.5367 87.4785L91.5227 90.2081L91.1419 90.4295L91.1558 87.6998Z" fill="#3955D1"/>
<path d="M90.488 87.3142L90.8689 87.0929L91.5366 87.4784L91.1558 87.6998L90.488 87.3142Z" fill="#6BB5FB"/>
<path d="M91.1557 87.6997L91.1418 90.4294L90.474 90.0438L90.488 87.3142L91.1557 87.6997Z" fill="#4466FB"/>
<path d="M92.518 88.4866L92.8988 88.2653L92.8849 90.9949L92.504 91.2162L92.518 88.4866Z" fill="#3955D1"/>
<path d="M91.8502 88.101L92.231 87.8796L92.8988 88.2652L92.5179 88.4865L91.8502 88.101Z" fill="#6BB5FB"/>
<path d="M92.5178 88.4865L92.5039 91.2161L91.8361 90.8306L91.8501 88.101L92.5178 88.4865Z" fill="#4466FB"/>
<path d="M93.8807 89.2732L94.2616 89.0519L94.2476 91.7815L93.8668 92.0028L93.8807 89.2732Z" fill="#3955D1"/>
<path d="M93.2129 88.8876L93.5937 88.6663L94.2615 89.0518L93.8807 89.2731L93.2129 88.8876Z" fill="#6BB5FB"/>
<path d="M93.8806 89.2731L93.8667 92.0027L93.1989 91.6172L93.2128 88.8876L93.8806 89.2731Z" fill="#4466FB"/>
<path d="M95.2428 90.0597L95.6236 89.8384L95.6097 92.568L95.2288 92.7893L95.2428 90.0597Z" fill="#3955D1"/>
<path d="M94.575 89.6741L94.9558 89.4528L95.6236 89.8383L95.2427 90.0596L94.575 89.6741Z" fill="#6BB5FB"/>
<path d="M95.2427 90.0596L95.2287 92.7892L94.5609 92.4037L94.5749 89.6741L95.2427 90.0596Z" fill="#4466FB"/>
<path d="M96.6054 90.8463L96.9863 90.625L96.9723 93.3546L96.5915 93.5759L96.6054 90.8463Z" fill="#3955D1"/>
<path d="M95.9377 90.4607L96.3185 90.2394L96.9862 90.6249L96.6054 90.8462L95.9377 90.4607Z" fill="#6BB5FB"/>
<path d="M96.6053 90.8462L96.5914 93.5758L95.9236 93.1903L95.9376 90.4607L96.6053 90.8462Z" fill="#4466FB"/>
<path d="M97.9676 91.6329L98.3484 91.4116L98.3345 94.1412L97.9536 94.3626L97.9676 91.6329Z" fill="#3955D1"/>
<path d="M97.2998 91.2473L97.6806 91.026L98.3484 91.4115L97.9676 91.6328L97.2998 91.2473Z" fill="#6BB5FB"/>
<path d="M97.9675 91.6328L97.9535 94.3625L97.2858 93.9769L97.2997 91.2473L97.9675 91.6328Z" fill="#4466FB"/>
<path d="M89.7932 86.9133L90.174 86.692L90.1601 89.4216L89.7792 89.643L89.7932 86.9133Z" fill="#3955D1"/>
<path d="M89.1253 86.5277L89.5062 86.3064L90.174 86.6919L89.7931 86.9132L89.1253 86.5277Z" fill="#6BB5FB"/>
<path d="M89.7931 86.9132L89.7791 89.6429L89.1113 89.2573L89.1253 86.5277L89.7931 86.9132Z" fill="#4466FB"/>
<path d="M99.1496 96.7107L99.1363 100.954L88.5957 94.8683L88.609 90.6251L99.1496 96.7107Z" fill="#2E4277"/>
<path d="M91.1558 93.3446L91.5367 93.1233L91.5227 95.8529L91.1419 96.0742L91.1558 93.3446Z" fill="#3955D1"/>
<path d="M90.488 92.959L90.8689 92.7377L91.5366 93.1232L91.1558 93.3445L90.488 92.959Z" fill="#6BB5FB"/>
<path d="M91.1557 93.3445L91.1418 96.0741L90.474 95.6886L90.488 92.959L91.1557 93.3445Z" fill="#4466FB"/>
<path d="M92.518 94.1312L92.8988 93.9099L92.8849 96.6395L92.504 96.8609L92.518 94.1312Z" fill="#3955D1"/>
<path d="M91.8502 93.7456L92.231 93.5243L92.8988 93.9098L92.5179 94.1312L91.8502 93.7456Z" fill="#6BB5FB"/>
<path d="M92.5178 94.1311L92.5039 96.8608L91.8361 96.4752L91.8501 93.7456L92.5178 94.1311Z" fill="#4466FB"/>
<path d="M93.8807 94.9179L94.2616 94.6965L94.2476 97.4262L93.8668 97.6475L93.8807 94.9179Z" fill="#3955D1"/>
<path d="M93.2129 94.5322L93.5937 94.3109L94.2615 94.6964L93.8807 94.9178L93.2129 94.5322Z" fill="#6BB5FB"/>
<path d="M93.8806 94.9178L93.8667 97.6474L93.1989 97.2618L93.2128 94.5322L93.8806 94.9178Z" fill="#4466FB"/>
<path d="M95.2428 95.7043L95.6236 95.483L95.6097 98.2127L95.2288 98.434L95.2428 95.7043Z" fill="#3955D1"/>
<path d="M94.575 95.3187L94.9558 95.0974L95.6236 95.4829L95.2427 95.7043L94.575 95.3187Z" fill="#6BB5FB"/>
<path d="M95.2427 95.7043L95.2287 98.4339L94.5609 98.0483L94.5749 95.3187L95.2427 95.7043Z" fill="#4466FB"/>
<path d="M96.6054 96.491L96.9863 96.2697L96.9723 98.9993L96.5915 99.2206L96.6054 96.491Z" fill="#3955D1"/>
<path d="M95.9377 96.1053L96.3185 95.884L96.9862 96.2696L96.6054 96.4909L95.9377 96.1053Z" fill="#6BB5FB"/>
<path d="M96.6053 96.4909L96.5914 99.2205L95.9236 98.835L95.9376 96.1053L96.6053 96.4909Z" fill="#4466FB"/>
<path d="M97.9676 97.2776L98.3484 97.0563L98.3345 99.7859L97.9536 100.007L97.9676 97.2776Z" fill="#3955D1"/>
<path d="M97.2998 96.892L97.6806 96.6707L98.3484 97.0562L97.9676 97.2775L97.2998 96.892Z" fill="#6BB5FB"/>
<path d="M97.9675 97.2775L97.9535 100.007L97.2858 99.6216L97.2997 96.892L97.9675 97.2775Z" fill="#4466FB"/>
<path d="M89.7932 92.558L90.174 92.3367L90.1601 95.0663L89.7792 95.2876L89.7932 92.558Z" fill="#3955D1"/>
<path d="M89.1253 92.1724L89.5062 91.951L90.174 92.3366L89.7931 92.5579L89.1253 92.1724Z" fill="#6BB5FB"/>
<path d="M89.7931 92.5579L89.7791 95.2875L89.1113 94.902L89.1253 92.1724L89.7931 92.5579Z" fill="#4466FB"/>
<path d="M99.1496 102.355L99.1363 106.598L88.5957 100.513L88.609 96.2697L99.1496 102.355Z" fill="#2E4277"/>
<path d="M91.1558 98.9892L91.5367 98.7678L91.5227 101.497L91.1419 101.719L91.1558 98.9892Z" fill="#3955D1"/>
<path d="M90.488 98.6035L90.8689 98.3822L91.5366 98.7677L91.1558 98.9891L90.488 98.6035Z" fill="#6BB5FB"/>
<path d="M91.1557 98.9891L91.1418 101.719L90.474 101.333L90.488 98.6035L91.1557 98.9891Z" fill="#4466FB"/>
<path d="M92.518 99.7758L92.8988 99.5544L92.8849 102.284L92.504 102.505L92.518 99.7758Z" fill="#3955D1"/>
<path d="M91.8502 99.3901L92.231 99.1688L92.8988 99.5544L92.5179 99.7757L91.8502 99.3901Z" fill="#6BB5FB"/>
<path d="M92.5178 99.7757L92.5039 102.505L91.8361 102.12L91.8501 99.3901L92.5178 99.7757Z" fill="#4466FB"/>
<path d="M93.8807 100.562L94.2616 100.341L94.2476 103.071L93.8668 103.292L93.8807 100.562Z" fill="#3955D1"/>
<path d="M93.2129 100.177L93.5937 99.9554L94.2615 100.341L93.8807 100.562L93.2129 100.177Z" fill="#6BB5FB"/>
<path d="M93.8806 100.562L93.8667 103.292L93.1989 102.906L93.2128 100.177L93.8806 100.562Z" fill="#4466FB"/>
<path d="M95.2428 101.349L95.6236 101.128L95.6097 103.857L95.2288 104.079L95.2428 101.349Z" fill="#3955D1"/>
<path d="M94.575 100.963L94.9558 100.742L95.6236 101.127L95.2427 101.349L94.575 100.963Z" fill="#6BB5FB"/>
<path d="M95.2427 101.349L95.2287 104.078L94.5609 103.693L94.5749 100.963L95.2427 101.349Z" fill="#4466FB"/>
<path d="M96.6054 102.135L96.9863 101.914L96.9723 104.644L96.5915 104.865L96.6054 102.135Z" fill="#3955D1"/>
<path d="M95.9377 101.75L96.3185 101.529L96.9862 101.914L96.6054 102.135L95.9377 101.75Z" fill="#6BB5FB"/>
<path d="M96.6053 102.135L96.5914 104.865L95.9236 104.48L95.9376 101.75L96.6053 102.135Z" fill="#4466FB"/>
<path d="M97.9676 102.922L98.3484 102.701L98.3345 105.43L97.9536 105.652L97.9676 102.922Z" fill="#3955D1"/>
<path d="M97.2998 102.536L97.6806 102.315L98.3484 102.701L97.9676 102.922L97.2998 102.536Z" fill="#6BB5FB"/>
<path d="M97.9675 102.922L97.9535 105.652L97.2858 105.266L97.2997 102.536L97.9675 102.922Z" fill="#4466FB"/>
<path d="M89.7932 98.2025L90.174 97.9812L90.1601 100.711L89.7792 100.932L89.7932 98.2025Z" fill="#3955D1"/>
<path d="M89.1253 97.8169L89.5062 97.5956L90.174 97.9811L89.7931 98.2024L89.1253 97.8169Z" fill="#6BB5FB"/>
<path d="M89.7931 98.2024L89.7791 100.932L89.1113 100.547L89.1253 97.8169L89.7931 98.2024Z" fill="#4466FB"/>
<path d="M99.1496 108L99.1363 112.243L88.5957 106.157L88.609 101.914L99.1496 108Z" fill="#2E4277"/>
<path d="M91.1558 104.634L91.5367 104.412L91.5227 107.142L91.1419 107.363L91.1558 104.634Z" fill="#3955D1"/>
<path d="M90.488 104.248L90.8689 104.027L91.5366 104.412L91.1558 104.633L90.488 104.248Z" fill="#6BB5FB"/>
<path d="M91.1557 104.633L91.1418 107.363L90.474 106.978L90.488 104.248L91.1557 104.633Z" fill="#4466FB"/>
<path d="M92.518 105.42L92.8988 105.199L92.8849 107.929L92.504 108.15L92.518 105.42Z" fill="#3955D1"/>
<path d="M91.8502 105.035L92.231 104.813L92.8988 105.199L92.5179 105.42L91.8502 105.035Z" fill="#6BB5FB"/>
<path d="M92.5178 105.42L92.5039 108.15L91.8361 107.764L91.8501 105.035L92.5178 105.42Z" fill="#4466FB"/>
<path d="M93.8807 106.207L94.2616 105.986L94.2476 108.715L93.8668 108.937L93.8807 106.207Z" fill="#3955D1"/>
<path d="M93.2129 105.821L93.5937 105.6L94.2615 105.986L93.8807 106.207L93.2129 105.821Z" fill="#6BB5FB"/>
<path d="M93.8806 106.207L93.8667 108.936L93.1989 108.551L93.2128 105.821L93.8806 106.207Z" fill="#4466FB"/>
<path d="M95.2428 106.993L95.6236 106.772L95.6097 109.502L95.2288 109.723L95.2428 106.993Z" fill="#3955D1"/>
<path d="M94.575 106.608L94.9558 106.386L95.6236 106.772L95.2427 106.993L94.575 106.608Z" fill="#6BB5FB"/>
<path d="M95.2427 106.993L95.2287 109.723L94.5609 109.337L94.5749 106.608L95.2427 106.993Z" fill="#4466FB"/>
<path d="M96.6054 107.78L96.9863 107.559L96.9723 110.288L96.5915 110.51L96.6054 107.78Z" fill="#3955D1"/>
<path d="M95.9377 107.394L96.3185 107.173L96.9862 107.559L96.6054 107.78L95.9377 107.394Z" fill="#6BB5FB"/>
<path d="M96.6053 107.78L96.5914 110.51L95.9236 110.124L95.9376 107.394L96.6053 107.78Z" fill="#4466FB"/>
<path d="M97.9676 108.567L98.3484 108.345L98.3345 111.075L97.9536 111.296L97.9676 108.567Z" fill="#3955D1"/>
<path d="M97.2998 108.181L97.6806 107.96L98.3484 108.345L97.9676 108.567L97.2998 108.181Z" fill="#6BB5FB"/>
<path d="M97.9675 108.567L97.9535 111.296L97.2858 110.911L97.2997 108.181L97.9675 108.567Z" fill="#4466FB"/>
<path d="M89.7932 103.847L90.174 103.626L90.1601 106.355L89.7792 106.577L89.7932 103.847Z" fill="#3955D1"/>
<path d="M89.1253 103.461L89.5062 103.24L90.174 103.626L89.7931 103.847L89.1253 103.461Z" fill="#6BB5FB"/>
<path d="M89.7931 103.847L89.7791 106.577L89.1113 106.191L89.1253 103.461L89.7931 103.847Z" fill="#4466FB"/>
<path d="M113.337 106.865C113.28 106.897 113.234 106.978 113.234 107.042C113.234 107.108 113.281 107.135 113.337 107.102L115.84 105.657C115.897 105.625 115.943 105.545 115.943 105.478C115.943 105.414 115.896 105.387 115.84 105.42L113.337 106.865Z" fill="#384E85"/>
<path d="M113.336 106.313C113.279 106.346 113.233 106.426 113.233 106.492C113.233 106.557 113.28 106.583 113.336 106.551L115.839 105.106C115.896 105.073 115.942 104.993 115.942 104.928C115.942 104.862 115.895 104.836 115.839 104.868L113.336 106.313Z" fill="#384E85"/>
<path d="M113.334 105.763C113.278 105.795 113.231 105.874 113.232 105.941C113.232 106.005 113.278 106.032 113.335 105.999L115.838 104.554C115.894 104.522 115.94 104.441 115.94 104.377C115.94 104.311 115.893 104.285 115.837 104.318L113.334 105.763Z" fill="#384E85"/>
<path d="M113.332 105.211C113.276 105.244 113.23 105.323 113.23 105.389C113.23 105.454 113.277 105.48 113.333 105.448L115.836 104.003C115.892 103.97 115.939 103.89 115.939 103.825C115.938 103.759 115.892 103.734 115.835 103.766L113.332 105.211Z" fill="#384E85"/>
<path d="M113.329 104.108C113.273 104.141 113.226 104.22 113.227 104.286C113.227 104.351 113.273 104.377 113.33 104.345L115.833 102.9C115.889 102.867 115.935 102.787 115.935 102.722C115.935 102.656 115.888 102.631 115.832 102.663L113.329 104.108Z" fill="#384E85"/>
<path d="M113.331 104.66C113.274 104.692 113.228 104.771 113.228 104.837C113.228 104.902 113.275 104.929 113.331 104.896L115.834 103.451C115.891 103.419 115.937 103.338 115.937 103.274C115.937 103.207 115.89 103.182 115.834 103.215L113.331 104.66Z" fill="#384E85"/>
<path d="M113.337 101.844C113.28 101.877 113.234 101.957 113.234 102.022C113.234 102.088 113.281 102.115 113.337 102.082L115.84 100.637C115.897 100.604 115.943 100.524 115.943 100.458C115.943 100.393 115.896 100.367 115.84 100.399L113.337 101.844Z" fill="#384E85"/>
<path d="M113.336 101.293C113.279 101.325 113.233 101.406 113.233 101.472C113.233 101.536 113.28 101.563 113.336 101.53L115.839 100.085C115.896 100.053 115.942 99.9725 115.942 99.9078C115.942 99.8417 115.895 99.8151 115.839 99.8476L113.336 101.293Z" fill="#384E85"/>
<path d="M113.334 100.742C113.278 100.775 113.231 100.854 113.232 100.92C113.232 100.985 113.278 101.011 113.335 100.979L115.838 99.5337C115.894 99.5012 115.94 99.4209 115.94 99.3562C115.94 99.29 115.893 99.2648 115.837 99.2973L113.334 100.742Z" fill="#384E85"/>
<path d="M113.332 100.191C113.276 100.223 113.23 100.302 113.23 100.368C113.23 100.433 113.277 100.46 113.333 100.427L115.836 98.9822C115.892 98.9497 115.939 98.8694 115.939 98.8046C115.938 98.7385 115.892 98.7133 115.835 98.7458L113.332 100.191Z" fill="#384E85"/>
<path d="M113.329 99.0877C113.273 99.1203 113.226 99.1992 113.227 99.2653C113.227 99.33 113.273 99.3566 113.33 99.3241L115.833 97.8791C115.889 97.8465 115.935 97.7662 115.935 97.7015C115.935 97.6354 115.888 97.6102 115.832 97.6427L113.329 99.0877Z" fill="#384E85"/>
<path d="M113.331 99.6392C113.274 99.6718 113.228 99.7507 113.228 99.8168C113.228 99.8815 113.275 99.9081 113.331 99.8756L115.834 98.4306C115.891 98.3981 115.937 98.3177 115.937 98.253C115.937 98.1869 115.89 98.1617 115.834 98.1942L113.331 99.6392Z" fill="#384E85"/>
<path d="M113.337 96.8237C113.28 96.8562 113.234 96.9365 113.234 97.0013C113.234 97.0674 113.281 97.094 113.337 97.0615L115.84 95.6164C115.897 95.5839 115.943 95.5036 115.943 95.4374C115.943 95.3727 115.896 95.3461 115.84 95.3786L113.337 96.8237Z" fill="#384E85"/>
<path d="M113.336 96.2721C113.279 96.3047 113.233 96.385 113.233 96.4511C113.233 96.5158 113.28 96.5425 113.336 96.5099L115.839 95.0649C115.896 95.0324 115.942 94.952 115.942 94.8873C115.942 94.8212 115.895 94.7946 115.839 94.8271L113.336 96.2721Z" fill="#384E85"/>
<path d="M113.334 95.7219C113.278 95.7544 113.231 95.8334 113.232 95.8995C113.232 95.9642 113.278 95.9908 113.335 95.9583L115.838 94.5132C115.894 94.4807 115.94 94.4004 115.94 94.3357C115.94 94.2695 115.893 94.2443 115.837 94.2768L113.334 95.7219Z" fill="#384E85"/>
<path d="M113.332 95.1704C113.276 95.2029 113.23 95.2818 113.23 95.348C113.23 95.4127 113.277 95.4393 113.333 95.4068L115.836 93.9617C115.892 93.9292 115.939 93.8488 115.939 93.7841C115.938 93.718 115.892 93.6928 115.835 93.7253L113.332 95.1704Z" fill="#384E85"/>
<path d="M113.329 94.0672C113.273 94.0998 113.226 94.1787 113.227 94.2448C113.227 94.3095 113.273 94.3361 113.33 94.3036L115.833 92.8586C115.889 92.8261 115.935 92.7457 115.935 92.681C115.935 92.6149 115.888 92.5897 115.832 92.6222L113.329 94.0672Z" fill="#384E85"/>
<path d="M113.331 94.6187C113.274 94.6513 113.228 94.7302 113.228 94.7963C113.228 94.861 113.275 94.8877 113.331 94.8551L115.834 93.4101C115.891 93.3775 115.937 93.2972 115.937 93.2325C115.937 93.1664 115.89 93.1412 115.834 93.1737L113.331 94.6187Z" fill="#384E85"/>
<path d="M113.337 91.8033C113.28 91.8358 113.234 91.9162 113.234 91.9809C113.234 92.047 113.281 92.0736 113.337 92.0411L115.84 90.596C115.897 90.5635 115.943 90.4832 115.943 90.4171C115.943 90.3523 115.896 90.3257 115.84 90.3582L113.337 91.8033Z" fill="#384E85"/>
<path d="M113.336 91.2517C113.279 91.2843 113.233 91.3646 113.233 91.4307C113.233 91.4954 113.28 91.5221 113.336 91.4895L115.839 90.0445C115.896 90.012 115.942 89.9316 115.942 89.8669C115.942 89.8008 115.895 89.7742 115.839 89.8067L113.336 91.2517Z" fill="#384E85"/>
<path d="M113.334 90.7015C113.278 90.734 113.231 90.813 113.232 90.8791C113.232 90.9438 113.278 90.9704 113.335 90.9379L115.838 89.4928C115.894 89.4603 115.94 89.38 115.94 89.3153C115.94 89.2491 115.893 89.2239 115.837 89.2565L113.334 90.7015Z" fill="#384E85"/>
<path d="M113.332 90.15C113.276 90.1825 113.23 90.2614 113.23 90.3276C113.23 90.3923 113.277 90.4189 113.333 90.3864L115.836 88.9413C115.892 88.9088 115.939 88.8285 115.939 88.7637C115.938 88.6976 115.892 88.6724 115.835 88.7049L113.332 90.15Z" fill="#384E85"/>
<path d="M113.329 89.0468C113.273 89.0794 113.226 89.1583 113.227 89.2244C113.227 89.2891 113.273 89.3157 113.33 89.2832L115.833 87.8382C115.889 87.8056 115.935 87.7253 115.935 87.6606C115.935 87.5945 115.888 87.5693 115.832 87.6018L113.329 89.0468Z" fill="#384E85"/>
<path d="M113.331 89.5984C113.274 89.6309 113.228 89.7098 113.228 89.7759C113.228 89.8407 113.275 89.8673 113.331 89.8347L115.834 88.3897C115.891 88.3572 115.937 88.2768 115.937 88.2121C115.937 88.146 115.89 88.1208 115.834 88.1533L113.331 89.5984Z" fill="#384E85"/>
<path d="M113.337 86.7828C113.28 86.8153 113.234 86.8957 113.234 86.9604C113.234 87.0265 113.281 87.0531 113.337 87.0206L115.84 85.5755C115.897 85.543 115.943 85.4627 115.943 85.3965C115.943 85.3318 115.896 85.3052 115.84 85.3377L113.337 86.7828Z" fill="#384E85"/>
<path d="M113.336 86.2311C113.279 86.2637 113.233 86.344 113.233 86.4101C113.233 86.4748 113.28 86.5014 113.336 86.4689L115.839 85.0239C115.896 84.9914 115.942 84.911 115.942 84.8463C115.942 84.7802 115.895 84.7535 115.839 84.7861L113.336 86.2311Z" fill="#384E85"/>
<path d="M113.334 85.681C113.278 85.7135 113.231 85.7925 113.232 85.8586C113.232 85.9233 113.278 85.9499 113.335 85.9174L115.838 84.4723C115.894 84.4398 115.94 84.3595 115.94 84.2948C115.94 84.2286 115.893 84.2034 115.837 84.2359L113.334 85.681Z" fill="#384E85"/>
<path d="M113.332 85.1295C113.276 85.162 113.23 85.2409 113.23 85.3071C113.23 85.3718 113.277 85.3984 113.333 85.3659L115.836 83.9208C115.892 83.8883 115.939 83.808 115.939 83.7432C115.938 83.6771 115.892 83.6519 115.835 83.6844L113.332 85.1295Z" fill="#384E85"/>
<path d="M113.329 84.0263C113.273 84.0588 113.226 84.1378 113.227 84.2039C113.227 84.2686 113.273 84.2952 113.33 84.2627L115.833 82.8177C115.889 82.7851 115.935 82.7048 115.935 82.6401C115.935 82.574 115.888 82.5488 115.832 82.5813L113.329 84.0263Z" fill="#384E85"/>
<path d="M113.331 84.5779C113.274 84.6104 113.228 84.6893 113.228 84.7554C113.228 84.8202 113.275 84.8468 113.331 84.8142L115.834 83.3692C115.891 83.3367 115.937 83.2563 115.937 83.1916C115.937 83.1255 115.89 83.1003 115.834 83.1328L113.331 84.5779Z" fill="#384E85"/>
<path d="M113.337 81.7623C113.28 81.7948 113.234 81.8752 113.234 81.9399C113.234 82.006 113.281 82.0326 113.337 82.0001L115.84 80.555C115.897 80.5225 115.943 80.4422 115.943 80.376C115.943 80.3113 115.896 80.2847 115.84 80.3172L113.337 81.7623Z" fill="#384E85"/>
<path d="M113.336 81.2107C113.279 81.2432 113.233 81.3236 113.233 81.3897C113.233 81.4544 113.28 81.481 113.336 81.4485L115.839 80.0035C115.896 79.9709 115.942 79.8906 115.942 79.8259C115.942 79.7598 115.895 79.7332 115.839 79.7657L113.336 81.2107Z" fill="#384E85"/>
<path d="M113.334 80.6605C113.278 80.693 113.231 80.7719 113.232 80.8381C113.232 80.9028 113.278 80.9294 113.335 80.8969L115.838 79.4518C115.894 79.4193 115.94 79.339 115.94 79.2743C115.94 79.2081 115.893 79.1829 115.837 79.2154L113.334 80.6605Z" fill="#384E85"/>
<path d="M113.332 80.109C113.276 80.1415 113.23 80.2204 113.23 80.2866C113.23 80.3513 113.277 80.3779 113.333 80.3454L115.836 78.9003C115.892 78.8678 115.939 78.7875 115.939 78.7227C115.938 78.6566 115.892 78.6314 115.835 78.6639L113.332 80.109Z" fill="#384E85"/>
<path d="M113.329 79.0058C113.273 79.0384 113.226 79.1173 113.227 79.1834C113.227 79.2481 113.273 79.2747 113.33 79.2422L115.833 77.7972C115.889 77.7646 115.935 77.6843 115.935 77.6196C115.935 77.5535 115.888 77.5283 115.832 77.5608L113.329 79.0058Z" fill="#384E85"/>
<path d="M113.331 79.5574C113.274 79.5899 113.228 79.6688 113.228 79.7349C113.228 79.7996 113.275 79.8263 113.331 79.7937L115.834 78.3487C115.891 78.3161 115.937 78.2358 115.937 78.1711C115.937 78.105 115.89 78.0798 115.834 78.1123L113.331 79.5574Z" fill="#384E85"/>
<path d="M113.337 76.7418C113.28 76.7743 113.234 76.8547 113.234 76.9194C113.234 76.9855 113.281 77.0121 113.337 76.9796L115.84 75.5345C115.897 75.502 115.943 75.4217 115.943 75.3555C115.943 75.2908 115.896 75.2642 115.84 75.2967L113.337 76.7418Z" fill="#384E85"/>
<path d="M113.336 76.1902C113.279 76.2227 113.233 76.3031 113.233 76.3692C113.233 76.4339 113.28 76.4606 113.336 76.428L115.839 74.983C115.896 74.9504 115.942 74.8701 115.942 74.8054C115.942 74.7393 115.895 74.7127 115.839 74.7452L113.336 76.1902Z" fill="#384E85"/>
<path d="M113.334 75.64C113.278 75.6725 113.231 75.7515 113.232 75.8176C113.232 75.8823 113.278 75.9089 113.335 75.8764L115.838 74.4313C115.894 74.3988 115.94 74.3185 115.94 74.2537C115.94 74.1876 115.893 74.1624 115.837 74.1949L113.334 75.64Z" fill="#384E85"/>
<path d="M113.332 75.0885C113.276 75.121 113.23 75.1999 113.23 75.2661C113.23 75.3308 113.277 75.3574 113.333 75.3249L115.836 73.8798C115.892 73.8473 115.939 73.7669 115.939 73.7022C115.938 73.6361 115.892 73.6109 115.835 73.6434L113.332 75.0885Z" fill="#384E85"/>
<path d="M113.329 73.9853C113.273 74.0178 113.226 74.0967 113.227 74.1629C113.227 74.2276 113.273 74.2542 113.33 74.2217L115.833 72.7766C115.889 72.7441 115.935 72.6638 115.935 72.5991C115.935 72.533 115.888 72.5077 115.832 72.5403L113.329 73.9853Z" fill="#384E85"/>
<path d="M113.331 74.5368C113.274 74.5694 113.228 74.6483 113.228 74.7144C113.228 74.7791 113.275 74.8057 113.331 74.7732L115.834 73.3282C115.891 73.2956 115.937 73.2153 115.937 73.1506C115.937 73.0845 115.89 73.0593 115.834 73.0918L113.331 74.5368Z" fill="#384E85"/>
<path d="M105.314 108.528C105.302 109.133 104.886 109.868 104.364 110.165C104.21 110.26 104.044 110.307 103.902 110.307C103.795 110.307 103.688 110.284 103.605 110.224C103.391 110.106 103.261 109.856 103.261 109.536C103.261 108.931 103.676 108.207 104.21 107.899C104.483 107.733 104.768 107.721 104.981 107.84C105.195 107.97 105.314 108.207 105.314 108.528Z" fill="#8CA1FD"/>
<path d="M106.647 110.193L104.23 108.798L104.033 109.141L106.448 110.535C106.668 110.663 106.805 110.899 106.805 111.151V117.781C106.805 118.356 106.496 118.892 105.997 119.181L95.0533 125.542C94.5564 125.833 93.9353 125.833 93.4313 125.543L62.4464 107.655C62.2245 107.527 62.0914 107.298 62.0914 107.041C62.0897 106.784 62.221 106.553 62.4446 106.425L68.5138 102.897C69.1332 102.539 69.5165 101.87 69.5165 101.155V90.4449C69.5165 90.0722 69.3159 89.7226 68.993 89.5345L67.6975 88.7873L67.6194 88.7412L67.4189 89.0837L68.796 89.877C68.9965 89.9941 69.1225 90.2106 69.1225 90.4449V101.155C69.1225 101.731 68.8137 102.267 68.315 102.555L62.2458 106.083C61.9015 106.283 61.6957 106.642 61.6957 107.041C61.6957 107.439 61.9015 107.797 62.2476 107.998L93.2326 125.886C93.5378 126.062 93.8874 126.154 94.2406 126.154C94.5937 126.154 94.9433 126.06 95.2521 125.882L106.196 119.522C106.816 119.162 107.199 118.495 107.199 117.781V111.151C107.199 110.759 106.988 110.392 106.647 110.193Z" fill="#8CA1FD"/>
<path d="M68.5598 88.5099C68.5479 89.115 68.1326 89.8506 67.6106 90.1472C67.4563 90.2421 67.2903 90.2895 67.1479 90.2895C67.0411 90.2895 66.9343 90.2658 66.8513 90.2065C66.6377 90.0879 66.5071 89.8387 66.5071 89.5183C66.5071 88.9133 66.9224 88.1895 67.4563 87.8811C67.7292 87.715 68.014 87.7031 68.2275 87.8217C68.4411 87.9523 68.5598 88.1895 68.5598 88.5099Z" fill="#8CA1FD"/>
<path d="M85.4369 86.9119L84.5744 86.4108L84.5942 125.571L85.4566 126.072L85.4369 86.9119Z" fill="#2E4277"/>
<path d="M101.065 77.8889L100.203 77.3877L84.5744 86.4107L85.4369 86.9119L101.065 77.8889Z" fill="#384E85"/>
<path d="M85.4369 86.9119L85.4593 126.07L101.082 117.052L101.06 77.8934L85.4369 86.9119ZM87.3199 86.9144L99.1826 80.0726L99.1937 115.867L87.3423 122.709L87.3199 86.9144Z" fill="#1B2A4F"/>
<path d="M85.8245 105.599L86.5397 106.01C86.5907 106.041 86.6349 106.042 86.6689 106.024L87.0851 105.782L87.0834 106.117C87.0817 106.287 87.0222 106.408 86.9237 106.465L87.5235 106.117C87.6203 106.059 87.6815 105.94 87.6815 105.769L87.6866 102.937C87.6883 102.592 87.4453 102.172 87.1463 102.001L86.431 101.588L85.8329 101.934L86.5465 102.347C86.8473 102.521 87.0885 102.94 87.0885 103.285L87.0851 105.633L86.4242 105.251L85.8245 105.599Z" fill="#B7C5FD"/>
<path d="M85.8328 101.935L85.8316 102.35L86.5464 102.763C86.6462 102.821 86.7262 102.961 86.7259 103.075L86.7208 105.908C86.7204 106.023 86.6399 106.068 86.5401 106.011L85.8253 105.598L85.8241 106.014L86.5389 106.427C86.8383 106.6 87.0821 106.46 87.0831 106.117L87.0882 103.284C87.0892 102.94 86.847 102.521 86.5476 102.348L85.8328 101.935Z" fill="#798FFE"/>
<path opacity="0.3" d="M99.1776 80.0701L99.1952 115.868L87.3442 122.711L87.3257 86.9118L99.1776 80.0701Z" fill="#4466FB"/>
<g opacity="0.2">
<path opacity="0.2" d="M99.1784 81.201L87.329 92.8764L87.3309 96.4813L99.179 82.3407L99.1784 81.201Z" fill="white"/>
<path opacity="0.2" d="M99.1808 86.373L87.3328 100.514L87.3347 104.118L99.1856 92.6445L99.1808 86.373Z" fill="white"/>
<path opacity="0.2" d="M99.1873 99.1243L87.3375 109.008L87.3394 112.675L99.1884 101.338L99.1873 99.1243Z" fill="white"/>
<path opacity="0.2" d="M87.3414 116.708L87.3432 120.156L99.1938 108.899L99.1904 105.371L87.3414 116.708Z" fill="white"/>
</g>
</svg>
