<svg width="165" height="164" viewBox="0 0 165 164" fill="none" xmlns="http://www.w3.org/2000/svg">
<ellipse cx="82.5" cy="82" rx="82.2216" ry="82" fill="#F9F9FA"/>
<path d="M69.8119 54.5286C69.8304 48.0365 74.1621 45.165 79.6778 47.6819V48.7271C74.6586 46.4904 70.7331 49.1278 70.7162 55.0493L70.3394 54.8382L69.7688 56.1643L69.8119 54.5286Z" fill="#6BB5FB"/>
<path d="M72.5465 53.5174C71.9892 53.1946 71.2175 53.2401 70.3656 53.7307C68.6725 54.7056 67.3052 57.0674 67.3107 59.0076C67.3135 59.9714 67.6545 60.6496 68.2046 60.9684L69.1941 61.5418C68.644 61.223 68.303 60.5451 68.3002 59.5813C68.2947 57.641 69.662 55.2789 71.355 54.3041C72.207 53.8137 72.9787 53.768 73.5359 54.0908L72.5465 53.5174Z" fill="#356AF1"/>
<path d="M74.8058 53.2213C74.0654 52.7924 73.04 52.8528 71.908 53.5047C69.6584 54.8 67.8417 57.9381 67.8491 60.5162C67.8527 61.7968 68.3058 62.6979 69.0367 63.1215L71.2656 64.4131C70.5347 63.9895 70.0816 63.0887 70.0779 61.8082C70.0706 59.2301 71.8873 56.0916 74.1369 54.7963C75.2689 54.1448 76.2942 54.084 77.0346 54.513L74.8058 53.2213Z" fill="#2E4277"/>
<path d="M74.1364 54.7965C76.386 53.5012 78.2146 54.5405 78.2219 57.1185C78.2292 59.6963 76.4125 62.8345 74.1629 64.1298C71.9133 65.4251 70.0847 64.3858 70.0774 61.808C70.0701 59.23 71.8868 56.0917 74.1364 54.7965Z" fill="#2E4277"/>
<path d="M74.2377 56.2447C75.7891 55.3514 77.0503 56.0682 77.0553 57.8462C77.0604 59.624 75.8074 61.7884 74.256 62.6817C72.7045 63.5751 71.4433 62.8583 71.4383 61.0805C71.4332 59.3024 72.6862 57.1381 74.2377 56.2447Z" fill="#1B2A4F"/>
<path d="M73.8576 62.216C75.4091 61.3226 76.662 59.1583 76.657 57.3804C76.6556 56.88 76.5546 56.4636 76.3757 56.1436C76.797 56.4643 77.0531 57.0478 77.0553 57.8461C77.0604 59.624 75.8074 61.7883 74.256 62.6817C73.1411 63.3236 72.1762 63.1341 71.7195 62.3171C72.2365 62.7107 73.0027 62.7082 73.8576 62.216Z" fill="#384E85"/>
<path d="M77.0268 46.6584C75.2159 47.7073 74.092 49.9363 74.0836 53.0957L74.0411 54.7334L70.6743 56.6841L70.7167 55.0507C70.7252 51.887 71.849 49.6581 73.6599 48.6092L77.0268 46.6584Z" fill="#9AADFD"/>
<path d="M71.2611 64.8652C71.4383 68.8922 72.0027 72.3824 72.0027 72.3824C72.2784 76.1716 71.2586 78.984 72.3296 80.016C72.3904 83.1034 73.3541 87.1739 73.3541 87.1739L83.7722 87.7698L90.2 75.9998C89.2154 72.7487 90.1227 72.6938 90.3634 71.5202C90.4116 71.2855 90.4457 71.1591 90.4457 71.1591C89.698 74.6957 92.1842 59.4122 89.1375 54.44C86.5163 50.1623 71.4173 50.435 70.6409 55.5669C69.9083 59.57 69.9656 61.4307 71.2611 64.8652Z" fill="#D9DDF6"/>
<path d="M70.7164 55.0493C70.7236 52.5163 71.446 50.5843 72.6632 49.3776C74.2917 47.7633 75.4898 46.248 81.5388 45.6615C102.72 43.6075 93.878 69.6126 93.878 69.6126L89.1358 69.9284C89.5796 58.0418 85.6027 56.9904 83.6488 57.1789C82.1974 57.319 80.737 57.4118 79.2943 57.2003C76.1752 56.7429 74.6043 55.6207 73.0689 54.0628C72.7705 53.76 72.2637 53.8405 72.0542 54.2099C70.1805 57.516 71.2611 64.8652 71.2611 64.8652C68.7779 60.607 70.7164 55.0493 70.7164 55.0493Z" fill="#384E85"/>
<path d="M92.5641 66.2976C91.8237 65.8686 90.7984 62.0872 89.6664 62.739C87.4168 64.0343 85.6001 67.1725 85.6074 69.7505C85.611 71.0311 86.0641 71.9322 86.7951 72.3558L89.0239 73.6475C88.293 73.2239 87.8399 72.3231 87.8362 71.0425C87.8289 68.4645 89.6456 65.326 91.8952 64.0307C93.0272 63.3791 94.0526 63.3184 94.7929 63.7473L92.5641 66.2976Z" fill="#384E85"/>
<path d="M91.8954 64.0307C94.1449 62.7354 95.9735 63.7747 95.9808 66.3528C95.9882 68.9305 94.1715 72.0688 91.9219 73.3641C89.6723 74.6594 87.8437 73.6201 87.8364 71.0423C87.8291 68.4643 89.6458 65.326 91.8954 64.0307Z" fill="#1B2A4F"/>
<path d="M94.4509 65.1536C93.8937 64.8307 93.122 64.8762 92.27 65.3668C90.577 66.3417 89.2097 68.7035 89.2152 70.6438C89.2179 71.6075 89.559 72.2857 90.1091 72.6045L91.3749 73.3381C90.8249 73.0193 90.4839 72.3413 90.4811 71.3776C90.4756 69.4373 91.8429 67.0752 93.5359 66.1004C94.3879 65.61 95.1596 65.5643 95.7168 65.8871L94.4509 65.1536Z" fill="#356AF1"/>
<path d="M93.5362 66.1005C95.2293 65.1256 96.6055 65.9078 96.611 67.8481C96.6165 69.7881 95.2492 72.15 93.5562 73.1248C91.8631 74.0997 90.4869 73.3175 90.4814 71.3774C90.4759 69.4372 91.8432 67.0753 93.5362 66.1005Z" fill="#B7C5FD"/>
<path d="M95.1274 65.2133L95.085 68.9136L91.7181 70.8644L91.7606 67.1683C91.7817 60.232 86.875 51.7561 80.8232 48.271C77.7782 46.52 75.0132 46.3593 73.0157 47.5139L76.3868 45.5631C78.38 44.4043 81.1451 44.565 84.1901 46.3202C90.2419 49.8053 95.1486 58.2812 95.1274 65.2133Z" fill="#B7C5FD"/>
<path d="M80.822 48.2713C86.8737 51.7558 91.7802 60.2314 91.7605 67.1664L91.755 67.3712H90.8397L90.8588 66.6473C90.8768 60.2831 86.3725 52.5023 80.8191 49.3046C76.4417 46.7841 72.7098 47.864 71.3124 51.5463H70.1943C71.4491 46.8715 75.7381 45.3441 80.822 48.2713Z" fill="#356AF1"/>
<path d="M72.0025 72.3826C72.0025 72.3826 71.555 85.6242 76.7818 86.862C83.1284 88.365 86.7367 79.5958 92.1 78.5375C92.1 78.5375 94.8683 80.1633 97.915 82.4187C102.726 85.98 105.587 91.5882 105.587 97.5636L105.888 113.801C105.888 115.373 104.991 116.795 103.57 117.475C99.2732 119.53 90.0693 123.845 72.0368 113.801C72.0368 113.801 72.019 113.79 71.9849 113.769C65.2017 109.545 61.3277 106.016 60.3901 96.3628C60.3901 96.3628 57.2766 64.975 72.0025 72.3826Z" fill="#2E4277"/>
<path d="M70.7596 74.4163C70.9321 74.4724 71.1009 74.5194 71.2794 74.5904C71.5667 77.9441 73.2155 82.2696 77.3427 84.6101C77.3427 84.6101 82.0719 87.346 87.77 81.4273C89.118 81.4061 90.5566 78.8422 92.1 78.5376C92.1 78.5376 78.1921 106.659 72.0368 113.801C72.0368 113.801 71.558 113.466 70.832 112.913L70.9123 112.759C70.9123 112.759 65.5575 98.3096 70.7596 74.4163Z" fill="#4466FB"/>
<path d="M72.4251 81.844L75.2141 89.1775L69.7396 105.559L70.8323 112.913L72.037 113.801L76.1743 108.367L77.3565 90.3824L81.4936 86.9445L72.4251 81.844Z" fill="#2B3C67"/>
<path d="M72.0025 72.3827C72.0025 72.3827 71.7362 78.9233 77.3426 84.61C77.3426 84.61 73.2776 87.5316 71.7362 87.5316C71.7362 87.5316 68.8823 81.0726 69.318 77.9452C69.7537 74.8178 71.4666 75.13 72.0025 72.3827Z" fill="#4A7FFF"/>
<path d="M92.1 78.5376C92.1 78.5376 91.2186 77.7783 90.1998 76.0001C90.1998 76.0001 84.874 85.0464 77.3427 84.61C77.3427 84.61 78.2949 89.1595 80.6859 91.317C80.6859 91.317 88.8284 87.0522 92.1 78.5376Z" fill="#4A7FFF"/>
<path d="M91.6415 94.1085H86.597L87.9341 98.9319L72.037 113.801L92.1003 78.5376C92.1003 78.5376 96.0999 87.1077 91.6415 94.1085Z" fill="#384E85"/>
<path d="M65.1781 82.6266C65.1781 82.6266 66.6673 78.3532 72.0028 72.3827C72.0028 72.3827 69.1751 97.3802 70.9125 112.759C70.9125 112.759 64.7346 94.7662 64.7346 89.1391L67.9131 86.796L65.1781 82.6266Z" fill="#384E85"/>
<path d="M77.0156 70.8402C81.2993 73.6474 88.3792 71.6809 90.0126 70.0452C90.2505 70.6041 89.9477 70.9459 90.1997 71.5017C83.8702 75.6744 76.3937 72.3821 76.657 72.1287C76.811 71.5821 76.8645 71.3876 77.0156 70.8402Z" fill="#356AF1"/>
<path d="M72.7311 70.3669C72.9835 69.6109 73.8024 69.2021 74.5602 69.4538L77.7886 70.5261C78.5464 70.7779 78.9561 71.5948 78.7037 72.3509C78.4513 73.1069 77.6324 73.5157 76.8746 73.264L73.6462 72.1916C72.8884 71.9399 72.4787 71.1229 72.7311 70.3669Z" fill="#384E85"/>
</svg>
